<?xml version="1.0" encoding="UTF-8" standalone="no"?>
<svg width="104px" height="110px" viewBox="0 0 104 110" version="1.1" xmlns="http://www.w3.org/2000/svg" xmlns:xlink="http://www.w3.org/1999/xlink">
    <!-- Generator: Sketch 47 (45396) - http://www.bohemiancoding.com/sketch -->
    <title>Group 26</title>
    <desc>Created with Sketch.</desc>
    <defs></defs>
    <g id="Site" stroke="none" stroke-width="1" fill="none" fill-rule="evenodd">
        <g id="Home-1" transform="translate(-433.000000, -2252.000000)">
            <g id="Group-26" transform="translate(435.000000, 2254.000000)">
                <g id="Group-13" stroke="#FFFFFF">
                    <path d="M50,100 C77.6142375,100 100,77.6142375 100,50 C100,22.3857625 77.6142375,0 50,0 C22.3857625,0 0,22.3857625 0,50" id="Oval-10" stroke-width="3" opacity="0.2" stroke-linecap="round"></path>
                    <circle id="Oval-11" stroke-width="3" opacity="0.2" cx="14.5" cy="83.5" r="8.5"></circle>
                    <circle id="Oval-11-Copy-2" stroke-width="2" opacity="0.19688666" cx="30.5" cy="102.5" r="4.5"></circle>
                </g>
                <path d="M32.6150001,37.7083333 C34.4156758,39.5138979 35.3889994,41.8731336 35.5350001,44.7861111 C35.583667,45.8935241 35.6080001,46.8564774 35.6080001,47.675 C35.6080001,48.7583387 35.583667,49.9499935 35.5350001,51.25 C35.3889994,54.1389033 34.4156758,56.4861021 32.6150001,58.2916667 C30.8143244,60.0972312 28.2106838,61 24.8040001,61 C21.3973163,61 18.7936757,60.0972312 16.993,58.2916667 C15.1923243,56.4861021 14.2190007,54.1389033 14.073,51.25 C14.0243331,49.9499935 14,48.7583387 14,47.675 C14,46.8564774 14.0243331,45.8935241 14.073,44.7861111 C14.2190007,41.8972078 15.1923243,39.5439906 16.993,37.7263889 C18.7936757,35.9087872 21.3973163,35 24.8040001,35 C28.2106838,35 30.8143244,35.9027688 32.6150001,37.7083333 Z M20.69775,40.9583333 C19.6635782,41.9213011 19.0978338,43.2573989 19.0005,44.9666667 C18.9518331,46.1703764 18.9275,47.1814774 18.9275,48 C18.9275,48.8425968 18.9518331,49.8657347 19.0005,51.0694444 C19.0978338,52.7787122 19.6635782,54.1087915 20.69775,55.0597222 C21.7319219,56.0106529 23.1006582,56.4861111 24.8040001,56.4861111 C26.5073419,56.4861111 27.8760782,56.0106529 28.9102501,55.0597222 C29.9444219,54.1087915 30.5101663,52.7787122 30.6075001,51.0694444 C30.656167,50.4675896 30.6805001,49.4444517 30.6805001,48 C30.6805001,46.5796225 30.656167,45.5685215 30.6075001,44.9666667 C30.5101663,43.2573989 29.9444219,41.9213011 28.9102501,40.9583333 C27.8760782,39.9953656 26.5073419,39.5138889 24.8040001,39.5138889 C23.1006582,39.5138889 21.7319219,39.9953656 20.69775,40.9583333 Z M39.1047,51.6833333 C38.9100323,51.4907398 38.8127,51.2620384 38.8127,50.9972222 L38.8127,48.6138889 C38.8127,48.3490727 38.9100323,48.1203713 39.1047,47.9277778 C39.2993676,47.7351842 39.530532,47.6388889 39.7982,47.6388889 L50.9307,47.6388889 C51.1983681,47.6388889 51.4295324,47.7351842 51.6242,47.9277778 C51.8188677,48.1203713 51.9162,48.3490727 51.9162,48.6138889 L51.9162,50.9972222 C51.9162,51.2620384 51.8188677,51.4907398 51.6242,51.6833333 C51.4295324,51.8759269 51.1983681,51.9722222 50.9307,51.9722222 L39.7982,51.9722222 C39.530532,51.9722222 39.2993676,51.8759269 39.1047,51.6833333 Z M53.9163999,42.9083333 C53.9163999,42.5953688 54.0502319,42.3425936 54.3178999,42.15 L62.2383999,35.975 C62.4330676,35.8305548 62.6398988,35.6921303 62.8588999,35.5597222 C63.077901,35.4273142 63.2968989,35.3611111 63.5158999,35.3611111 L66.3629,35.3611111 C66.630568,35.3611111 66.8617323,35.4574064 67.0564,35.65 C67.2510676,35.8425936 67.3484,36.071295 67.3484,36.3361111 L67.3484,59.6638889 C67.3484,59.928705 67.2510676,60.1574064 67.0564,60.35 C66.8617323,60.5425936 66.630568,60.6388889 66.3629,60.6388889 L63.4063999,60.6388889 C63.1387319,60.6388889 62.9075676,60.5425936 62.7128999,60.35 C62.5182323,60.1574064 62.4208999,59.928705 62.4208999,59.6638889 L62.4208999,41.825 L57.2378999,45.8333333 C57.0675657,45.9777785 56.872901,46.05 56.6538999,46.05 C56.337565,46.05 56.069901,45.9175939 55.8508999,45.6527778 L54.1353999,43.5222222 C53.9893992,43.3296287 53.9163999,43.1250011 53.9163999,42.9083333 Z M86.42675,58.4 C84.905909,60.133342 82.4665168,61 79.1084999,61 C75.7504831,61 73.3110908,60.133342 71.7902499,58.4 C70.269409,56.666658 69.4360006,54.2713116 69.2899999,51.2138889 C69.2656664,50.612034 69.2534999,49.5648223 69.2534999,48.0722222 C69.2534999,46.6036964 69.2656664,45.5685215 69.2899999,44.9666667 C69.5820013,38.322189 72.854802,35 79.1084999,35 C82.4665168,35 84.905909,35.866658 86.42675,37.6 C87.9475909,39.333342 88.7809993,41.7286884 88.927,44.7861111 C88.9756669,45.9898208 89,47.0611064 89,48 C89,48.9388936 88.9756669,50.0101792 88.927,51.2138889 C88.7809993,54.2713116 87.9475909,56.666658 86.42675,58.4 Z M82.6855,55.1138889 C83.4398371,54.1990695 83.8778327,52.8388979 83.9995,51.0333333 C84.0481669,50.4314785 84.0725,49.4203775 84.0725,48 C84.0725,46.5796225 84.0481669,45.5685215 83.9995,44.9666667 C83.8778327,43.1611021 83.4398371,41.8009305 82.6855,40.8861111 C81.9311629,39.9712917 80.7388414,39.5138889 79.1084999,39.5138889 C77.4781584,39.5138889 76.285837,39.9712917 75.5314999,40.8861111 C74.7771628,41.8009305 74.3391672,43.1611021 74.2174999,44.9666667 C74.168833,46.1703764 74.1444999,47.1814774 74.1444999,48 C74.1444999,48.8185226 74.168833,49.8296236 74.2174999,51.0333333 C74.3391672,52.8388979 74.7771628,54.1990695 75.5314999,55.1138889 C76.285837,56.0287083 77.4781584,56.4861111 79.1084999,56.4861111 C80.7388414,56.4861111 81.9311629,56.0287083 82.6855,55.1138889 Z" id="O---10" fill="#FFFFFF"></path>
            </g>
        </g>
    </g>
</svg>