<?xml version="1.0" encoding="UTF-8" standalone="no"?>
<svg width="402px" height="248px" viewBox="0 0 402 248" version="1.1" xmlns="http://www.w3.org/2000/svg" xmlns:xlink="http://www.w3.org/1999/xlink">
    <!-- Generator: Sketch 47 (45396) - http://www.bohemiancoding.com/sketch -->
    <title>Group 25</title>
    <desc>Created with Sketch.</desc>
    <defs>
        <rect id="path-1" x="0" y="9" width="390" height="239" rx="4"></rect>
        <filter x="-0.5%" y="-0.8%" width="101.0%" height="101.7%" filterUnits="objectBoundingBox" id="filter-2">
            <feGaussianBlur stdDeviation="1.5" in="SourceAlpha" result="shadowBlurInner1"></feGaussianBlur>
            <feOffset dx="0" dy="1" in="shadowBlurInner1" result="shadowOffsetInner1"></feOffset>
            <feComposite in="shadowOffsetInner1" in2="SourceAlpha" operator="arithmetic" k2="-1" k3="1" result="shadowInnerInner1"></feComposite>
            <feColorMatrix values="0 0 0 0 0   0 0 0 0 0   0 0 0 0 0  0 0 0 0.10045856 0" type="matrix" in="shadowInnerInner1"></feColorMatrix>
        </filter>
        <filter x="-0.8%" y="-0.8%" width="102.1%" height="103.3%" filterUnits="objectBoundingBox" id="filter-3">
            <feOffset dx="1" dy="2" in="SourceAlpha" result="shadowOffsetOuter1"></feOffset>
            <feGaussianBlur stdDeviation="1" in="shadowOffsetOuter1" result="shadowBlurOuter1"></feGaussianBlur>
            <feColorMatrix values="0 0 0 0 0   0 0 0 0 0   0 0 0 0 0  0 0 0 0.251188859 0" type="matrix" in="shadowBlurOuter1" result="shadowMatrixOuter1"></feColorMatrix>
            <feMerge>
                <feMergeNode in="shadowMatrixOuter1"></feMergeNode>
                <feMergeNode in="SourceGraphic"></feMergeNode>
            </feMerge>
        </filter>
        <rect id="path-4" x="286.978" y="40.3166041" width="65.772" height="18.792" rx="3.132"></rect>
        <filter x="-9.1%" y="-16.0%" width="118.2%" height="163.9%" filterUnits="objectBoundingBox" id="filter-5">
            <feOffset dx="0" dy="3" in="SourceAlpha" result="shadowOffsetOuter1"></feOffset>
            <feGaussianBlur stdDeviation="1.5" in="shadowOffsetOuter1" result="shadowBlurOuter1"></feGaussianBlur>
            <feColorMatrix values="0 0 0 0 0.772055697   0 0 0 0 0.743024405   0 0 0 0 0.743024405  0 0 0 1 0" type="matrix" in="shadowBlurOuter1"></feColorMatrix>
        </filter>
    </defs>
    <g id="Site" stroke="none" stroke-width="1" fill="none" fill-rule="evenodd">
        <g id="Home-1" transform="translate(-265.000000, -821.000000)">
            <g id="Group-25" transform="translate(265.000000, 821.000000)">
                <g id="Rectangle-16-Copy-8">
                    <use fill="#FDFDFD" fill-rule="evenodd" xlink:href="#path-1"></use>
                    <use fill="black" fill-opacity="1" filter="url(#filter-2)" xlink:href="#path-1"></use>
                </g>
                <g id="Group-38-Copy" filter="url(#filter-3)" transform="translate(9.000000, 0.000000)">
                    <g id="Young-People-Copy">
                        <rect id="Rectangle-4" fill="#FFFFFF" x="0" y="0" width="390" height="239" rx="4.86999989"></rect>
                        <text id="eNPS-MENSAL" opacity="0.714085821" font-family="Rubik-Light, Rubik" font-size="15" font-weight="300" line-spacing="19" letter-spacing="-0.49000001" fill="#383838">
                            <tspan x="150.92" y="24">eNPS MENSAL</tspan>
                        </text>
                        <g id="Group-39" transform="translate(19.000000, 37.000000)">
                            <rect id="Rectangle-6" fill="#422E86" opacity="0.863222948" x="6" y="9" width="45" height="45" rx="3"></rect>
                            <rect id="Rectangle-6-Copy" fill="#9785D3" x="6" y="70" width="45" height="45" rx="3"></rect>
                            <text id="Empresa" font-family="Rubik-Light, Rubik" font-size="8" font-weight="300" letter-spacing="-0.051764708" fill="#FFFFFF">
                                <tspan x="13.0208496" y="21">Empresa</tspan>
                            </text>
                            <text id="Mercado" font-family="Rubik-Light, Rubik" font-size="9" font-weight="300" letter-spacing="-0.0582352951" fill="#FFFFFF">
                                <tspan x="11.4634967" y="83">Mercado</tspan>
                            </text>
                            <path d="M14.1527632,37.6527778 C14.0509206,37.5490736 14,37.4259266 14,37.2833333 L14,36.6611111 C14,36.5185178 14.0509206,36.3953709 14.1527632,36.2916667 C14.2546059,36.1879624 14.3755422,36.1361111 14.5155759,36.1361111 L20.1487195,36.1361111 C20.2887531,36.1361111 20.4096895,36.1879624 20.5115321,36.2916667 C20.6133748,36.3953709 20.6642953,36.5185178 20.6642953,36.6611111 L20.6642953,37.2833333 C20.6642953,37.4259266 20.6133748,37.5490736 20.5115321,37.6527778 C20.4096895,37.756482 20.2887531,37.8083333 20.1487195,37.8083333 L14.5155759,37.8083333 C14.3755422,37.8083333 14.2546059,37.756482 14.1527632,37.6527778 Z M29.6683391,40.5208333 C30.241204,40.0347198 30.5276322,39.3379675 30.5276322,38.4305556 C30.5276322,37.5231436 30.241204,36.8263913 29.6683391,36.3402778 C29.0954741,35.8541642 28.3698561,35.6111111 27.4914632,35.6111111 C26.9695196,35.6111111 26.5621551,35.6726846 26.2693575,35.7958333 C25.9765599,35.9189821 25.6837666,36.0842582 25.390969,36.2916667 C25.238205,36.4083339 25.1077211,36.495833 24.9995133,36.5541667 C24.8913054,36.6125003 24.7671866,36.6416667 24.6271529,36.6416667 L23.6532874,36.6416667 C23.5387144,36.6416667 23.4400558,36.5995375 23.3573087,36.5152778 C23.2745615,36.4310181 23.2331886,36.3305561 23.2331886,36.2138889 L23.8060506,29.7194444 C23.8060506,29.5768511 23.8569712,29.4537042 23.9588138,29.35 C24.0606565,29.2462958 24.1815928,29.1944444 24.3216265,29.1944444 L31.0623034,29.1944444 C31.2023371,29.1944444 31.3232734,29.2462958 31.4251161,29.35 C31.5269587,29.4537042 31.5778793,29.5768511 31.5778793,29.7194444 L31.5778793,30.4194444 C31.5778793,30.5620378 31.5269587,30.6851847 31.4251161,30.7888889 C31.3232734,30.8925931 31.2023371,30.9444444 31.0623034,30.9444444 L25.5055414,30.9444444 L25.200015,34.3083333 C25.8492619,34.0101837 26.6130703,33.8611111 27.4914632,33.8611111 C28.3953168,33.8611111 29.2132283,34.0458315 29.9452224,34.4152778 C30.6772165,34.7847241 31.2596204,35.3162002 31.6924517,36.0097222 C32.125283,36.7032442 32.3416954,37.5101806 32.3416954,38.4305556 C32.3416954,39.3509305 32.125283,40.1578669 31.6924517,40.8513889 C31.2596204,41.5449109 30.6772165,42.076387 29.9452224,42.4458333 C29.2132283,42.8152796 28.3953168,43 27.4914632,43 C26.6512613,43 25.8619926,42.8412053 25.1236334,42.5236111 C24.3852741,42.2060169 23.7933226,41.7620399 23.347761,41.1916667 C22.9021994,40.6212934 22.6730568,39.9796332 22.6603265,39.2666667 C22.6603265,39.1499994 22.7016994,39.0495375 22.7844466,38.9652778 C22.8671938,38.8810181 22.9658524,38.8388889 23.0804253,38.8388889 L23.9588138,38.8388889 C24.0733868,38.8388889 24.1752279,38.8777774 24.2643403,38.9555556 C24.3534526,39.0333337 24.4171033,39.1370364 24.4552943,39.2666667 C24.6207886,39.8629659 24.9835976,40.3425908 25.5437322,40.7055556 C26.1038668,41.0685203 26.753104,41.25 27.4914632,41.25 C28.3698561,41.25 29.0954741,41.0069469 29.6683391,40.5208333 Z M42.7301558,41.5319444 C41.9217797,42.510653 40.7155989,43 39.1115771,43 C37.5075553,43 36.3013744,42.510653 35.4929983,41.5319444 C34.6846223,40.5532358 34.2677102,39.2601932 34.2422495,37.6527778 L34.2231541,36 L34.2422495,34.3666667 C34.2677102,32.7592512 34.6846223,31.4629679 35.4929983,30.4777778 C36.3013744,29.4925877 37.5075553,29 39.1115771,29 C40.7155989,29 41.9217797,29.4925877 42.7301558,30.4777778 C43.5385318,31.4629679 43.9554439,32.7592512 43.9809046,34.3666667 C43.9936349,34.7555575 44,35.2999965 44,36 C44,36.7129665 43.9936349,37.2638869 43.9809046,37.6527778 C43.9554439,39.2601932 43.5385318,40.5532358 42.7301558,41.5319444 Z M42.1859368,37.6527778 C42.1986671,37.2638869 42.2050322,36.7129665 42.2050322,36 C42.2050322,35.2999965 42.1986671,34.7555575 42.1859368,34.3666667 C42.1350155,31.9555435 41.1102391,30.75 39.1115771,30.75 C37.112915,30.75 36.0881386,31.9555435 36.0372173,34.3666667 L36.0181219,36 L36.0372173,37.6527778 C36.0881386,40.0509379 37.112915,41.25 39.1115771,41.25 C41.1102391,41.25 42.1350155,40.0509379 42.1859368,37.6527778 Z" id="-50" fill="#FFFFFF"></path>
                            <path d="M25.0315299,103.618056 C25.5833983,103.196757 25.8593284,102.584263 25.8593284,101.780556 C25.8593284,100.989811 25.5960847,100.416205 25.0695896,100.059722 C24.5430944,99.703239 23.8294821,99.525 22.9287313,99.525 L21.3492537,99.525 C21.2097008,99.525 21.0891796,99.4731487 20.9876866,99.3694444 C20.8861935,99.2657402 20.8354478,99.1425933 20.8354478,99 L20.8354478,98.3 C20.8354478,98.1962958 20.8608206,98.1023152 20.9115672,98.0180556 C20.9623137,97.9337959 21.0384323,97.8333339 21.1399254,97.7166667 L24.5652985,93.9444444 L19.0847015,93.9444444 C18.9451486,93.9444444 18.8246274,93.8925931 18.7231343,93.7888889 C18.6216413,93.6851847 18.5708955,93.5620377 18.5708955,93.4194444 L18.5708955,92.7194444 C18.5708955,92.5768511 18.6216413,92.4537042 18.7231343,92.35 C18.8246274,92.2462958 18.9451486,92.1944444 19.0847015,92.1944444 L26.5824627,92.1944444 C26.7220156,92.1944444 26.8425368,92.2462958 26.9440299,92.35 C27.0455229,92.4537042 27.0962687,92.5768511 27.0962687,92.7194444 L27.0962687,93.4194444 C27.0962687,93.6009268 26.9820907,93.821295 26.7537313,94.0805556 L23.3854478,97.7944444 C24.6667975,97.8203705 25.7007423,98.1898113 26.4873134,98.9027778 C27.2738845,99.6157443 27.6671642,100.574994 27.6671642,101.780556 C27.6671642,102.636115 27.4546663,103.384719 27.0296642,104.026389 C26.6046621,104.668059 26.0337722,105.157406 25.3169776,105.494444 C24.600183,105.831483 23.8041089,106 22.9287313,106 C21.8503677,106 20.9432873,105.834724 20.2074627,105.504167 C19.4716381,105.173609 18.9261212,104.745836 18.5708955,104.220833 C18.2156699,103.695831 18.0253733,103.135188 18,102.538889 C18,102.422222 18.0412309,102.32176 18.123694,102.2375 C18.2061571,102.15324 18.304477,102.111111 18.4186567,102.111111 L19.2940299,102.111111 C19.4208962,102.111111 19.5255593,102.15324 19.6080224,102.2375 C19.6904855,102.32176 19.7507461,102.41574 19.788806,102.519444 C19.9537322,103.050929 20.2550351,103.472221 20.6927239,103.783333 C21.1304126,104.094446 21.875741,104.25 22.9287313,104.25 C23.7787356,104.25 24.4796614,104.039354 25.0315299,103.618056 Z M30.198694,97.4152778 C29.9386181,96.9162012 29.8085821,96.3814843 29.8085821,95.8111111 C29.8085821,95.1240706 30.0020503,94.4888918 30.3889925,93.9055556 C30.7759348,93.3222193 31.3055937,92.858798 31.9779851,92.5152778 C32.6503765,92.1717575 33.3988765,92 34.2235075,92 C35.0481385,92 35.79981,92.1717575 36.4785448,92.5152778 C37.1572795,92.858798 37.69011,93.3222193 38.0770522,93.9055556 C38.4639945,94.4888918 38.6574627,95.1240706 38.6574627,95.8111111 C38.6574627,96.3814843 38.5242551,96.9129605 38.2578358,97.4055556 C37.9914166,97.8981506 37.6235098,98.3259241 37.1541045,98.6888889 C37.7376895,99.0777797 38.1912297,99.5541638 38.5147388,100.118056 C38.8382479,100.681947 39,101.28796 39,101.936111 C39,102.675004 38.797017,103.355552 38.3910448,103.977778 C37.9850726,104.600003 37.4173544,105.092591 36.6878731,105.455556 C35.9583919,105.81852 35.1369449,106 34.2235075,106 C33.3100701,106 32.488623,105.81852 31.7591418,105.455556 C31.0296605,105.092591 30.4619423,104.600003 30.0559701,103.977778 C29.649998,103.355552 29.4470149,102.675004 29.4470149,101.936111 C29.4470149,101.274997 29.608767,100.662503 29.9322761,100.098611 C30.2557852,99.5347194 30.7093254,99.0648167 31.2929104,98.6888889 C30.8235051,98.3388871 30.45877,97.9143543 30.198694,97.4152778 Z M36.0884328,97.2694444 C36.5958981,96.8675906 36.8496269,96.3814843 36.8496269,95.8111111 C36.8496269,95.2407379 36.5958981,94.7546316 36.0884328,94.3527778 C35.5809676,93.9509239 34.959332,93.75 34.2235075,93.75 C33.4876829,93.75 32.8692189,93.9509239 32.368097,94.3527778 C31.8669751,94.7546316 31.6164179,95.2407379 31.6164179,95.8111111 C31.6164179,96.3814843 31.8669751,96.8675906 32.368097,97.2694444 C32.8692189,97.6712983 33.4876829,97.8722222 34.2235075,97.8722222 C34.959332,97.8722222 35.5809676,97.6712983 36.0884328,97.2694444 Z M35.7554104,103.938889 C36.2057858,103.73148 36.5578346,103.45278 36.8115672,103.102778 C37.0652998,102.752776 37.1921642,102.363891 37.1921642,101.936111 C37.1921642,101.508331 37.0652998,101.119446 36.8115672,100.769444 C36.5578346,100.419443 36.2057858,100.140742 35.7554104,99.9333333 C35.3050351,99.7259249 34.7944058,99.6222222 34.2235075,99.6222222 C33.6526091,99.6222222 33.1419799,99.7259249 32.6916045,99.9333333 C32.2412291,100.140742 31.8891804,100.419443 31.6354478,100.769444 C31.3817151,101.119446 31.2548507,101.508331 31.2548507,101.936111 C31.2548507,102.363891 31.3817151,102.752776 31.6354478,103.102778 C31.8891804,103.45278 32.2412291,103.73148 32.6916045,103.938889 C33.1419799,104.146297 33.6526091,104.25 34.2235075,104.25 C34.7944058,104.25 35.3050351,104.146297 35.7554104,103.938889 Z" id="38" fill="#FFFFFF"></path>
                            <text id="Detratores-(0-a-6)" font-family="Rubik-Light, Rubik" font-size="15" font-weight="300" line-spacing="16.1800003" letter-spacing="0.00999999978" fill="#383838">
                                <tspan x="26.0085" y="162.605019">Detratores </tspan>
                                <tspan x="40.406" y="178.785019">(0 a 6)</tspan>
                            </text>
                            <text id="Neutros-(7-ou-8)" font-family="Rubik-Light, Rubik" font-size="15" font-weight="300" line-spacing="16.1800003" letter-spacing="0.00999999978" fill="#383838">
                                <tspan x="150.7415" y="163.605019">Neutros </tspan>
                                <tspan x="152.144" y="179.785019">(7 ou 8)</tspan>
                            </text>
                            <text id="Promotores-(9-ou-10)" font-family="Rubik-Light, Rubik" font-size="15" font-weight="300" line-spacing="16.1800003" letter-spacing="0.00999999978" fill="#383838">
                                <tspan x="257.236" y="163.605019">Promotores </tspan>
                                <tspan x="267.8585" y="179.785019">(9 ou 10)</tspan>
                            </text>
                            <rect id="Rectangle-5" fill="#FD6C6C" x="7" y="152" width="12" height="12" rx="2"></rect>
                            <rect id="Rectangle-5-Copy" fill="#5B4A95" x="132" y="152" width="12" height="12" rx="2"></rect>
                            <rect id="Rectangle-5-Copy-2" fill="#43D6A2" x="239" y="152" width="12" height="12" rx="2"></rect>
                            <path d="M57.1675,0.775104088 L57.1675,129.970104" id="Line-2" stroke="#979797" stroke-width="1.35" stroke-linecap="square"></path>
                            <rect id="Rectangle-3" fill="#FF5656" opacity="0.860000014" x="57.559" y="14.4776041" width="155.034" height="33.669" rx="2"></rect>
                            <rect id="Rectangle-3-Copy-4" fill="#FF5656" opacity="0.860000014" x="57.559" y="75.5516041" width="61.074" height="33.669" rx="2"></rect>
                            <path d="M122.199,75.5516041 L196.499,75.5516041 L196.499,75.5516041 C197.603569,75.5516041 198.499,76.4470346 198.499,77.5516041 L198.499,108.003604 L198.499,108.003604 C198.499,109.108174 197.603569,110.003604 196.499,110.003604 L122.199,110.003604 L122.199,110.003604 C121.094431,110.003604 120.199,109.108174 120.199,108.003604 L120.199,77.5516041 L120.199,77.5516041 C120.199,76.4470346 121.094431,75.5516041 122.199,75.5516041 Z" id="Rectangle-3-Copy-5" fill="#422E86" opacity="0.859999955"></path>
                            <rect id="Rectangle-3-Copy-6" fill="#25D194" opacity="0.850000024" x="200.065" y="75.5516041" width="137.808" height="33.669" rx="2"></rect>
                            <rect id="Rectangle-3-Copy" fill="#422E86" opacity="0.859999955" x="214.159" y="14.4776041" width="61.074" height="33.669" rx="2"></rect>
                            <rect id="Rectangle-3-Copy-3" fill="#25D194" opacity="0.850000024" x="276.799" y="14.4776041" width="61.074" height="33.669" rx="2"></rect>
                            <path d="M303.4104,38 L305.481,40.349 L302.436,40.349 L300,40.349 L303.4104,38 Z" id="Triangle" fill="#0F2441" opacity="0.615146922" transform="translate(302.740500, 39.174500) scale(1, -1) rotate(180.000000) translate(-302.740500, -39.174500) "></path>
                            <g id="Rectangle-2" opacity="0.8">
                                <use fill="black" fill-opacity="1" filter="url(#filter-5)" xlink:href="#path-4"></use>
                                <use fill="#0F2441" fill-rule="evenodd" xlink:href="#path-4"></use>
                            </g>
                            <text id="20%" font-family="Rubik-Light, Rubik" font-size="14" font-weight="300" line-spacing="14" letter-spacing="0.0783000045" fill="#FFFFFF">
                                <tspan x="303.86305" y="54.7786212">20%</tspan>
                            </text>
                        </g>
                    </g>
                </g>
            </g>
        </g>
    </g>
</svg>