<?xml version="1.0" encoding="UTF-8" standalone="no"?>
<svg width="403px" height="100px" viewBox="0 0 403 100" version="1.1" xmlns="http://www.w3.org/2000/svg" xmlns:xlink="http://www.w3.org/1999/xlink">
    <!-- Generator: Sketch 47 (45396) - http://www.bohemiancoding.com/sketch -->
    <title>Group 24</title>
    <desc>Created with Sketch.</desc>
    <defs>
        <rect id="path-1" x="0" y="7" width="390" height="91" rx="4"></rect>
        <filter x="-0.5%" y="-2.2%" width="101.0%" height="104.4%" filterUnits="objectBoundingBox" id="filter-2">
            <feGaussianBlur stdDeviation="1.5" in="SourceAlpha" result="shadowBlurInner1"></feGaussianBlur>
            <feOffset dx="0" dy="1" in="shadowBlurInner1" result="shadowOffsetInner1"></feOffset>
            <feComposite in="shadowOffsetInner1" in2="SourceAlpha" operator="arithmetic" k2="-1" k3="1" result="shadowInnerInner1"></feComposite>
            <feColorMatrix values="0 0 0 0 0   0 0 0 0 0   0 0 0 0 0  0 0 0 0.10045856 0" type="matrix" in="shadowInnerInner1"></feColorMatrix>
        </filter>
        <filter x="-1.0%" y="-4.4%" width="102.6%" height="111.0%" filterUnits="objectBoundingBox" id="filter-3">
            <feOffset dx="1" dy="1" in="SourceAlpha" result="shadowOffsetOuter1"></feOffset>
            <feGaussianBlur stdDeviation="1.5" in="shadowOffsetOuter1" result="shadowBlurOuter1"></feGaussianBlur>
            <feColorMatrix values="0 0 0 0 0   0 0 0 0 0   0 0 0 0 0  0 0 0 0.251188859 0" type="matrix" in="shadowBlurOuter1" result="shadowMatrixOuter1"></feColorMatrix>
            <feMerge>
                <feMergeNode in="shadowMatrixOuter1"></feMergeNode>
                <feMergeNode in="SourceGraphic"></feMergeNode>
            </feMerge>
        </filter>
        <linearGradient x1="100%" y1="50%" x2="0%" y2="50%" id="linearGradient-4">
            <stop stop-color="#25D193" offset="0%"></stop>
            <stop stop-color="#32898D" offset="15.912762%"></stop>
            <stop stop-color="#422E86" offset="27.7182258%"></stop>
            <stop stop-color="#FF5656" offset="100%"></stop>
        </linearGradient>
    </defs>
    <g id="Site" stroke="none" stroke-width="1" fill="none" fill-rule="evenodd">
        <g id="Home-1" transform="translate(-264.000000, -713.000000)">
            <g id="Group-24" transform="translate(264.000000, 715.000000)">
                <g id="Rectangle-16-Copy-7">
                    <use fill="#FDFDFD" fill-rule="evenodd" xlink:href="#path-1"></use>
                    <use fill="black" fill-opacity="1" filter="url(#filter-2)" xlink:href="#path-1"></use>
                </g>
                <g id="Group-40" transform="translate(9.000000, 0.000000)">
                    <g id="Group-38-Copy-2" filter="url(#filter-3)" fill="#FFFFFF">
                        <rect id="Rectangle-4" x="0" y="0" width="390" height="91" rx="4.86999989"></rect>
                    </g>
                    <text id="De-0-a-10,-qual-a-pr" opacity="0.705398787" font-family="Rubik-Light, Rubik" font-size="15" font-weight="300" line-spacing="19" letter-spacing="-0.49000001" fill="#383838">
                        <tspan x="16" y="24">De 0 a 10, qual a probabilidade de você indicar um amigo </tspan>
                        <tspan x="16" y="43">ou familiar qualificado para trabalhar na sua empresa</tspan>
                        <tspan x="346.53" y="43">?</tspan>
                    </text>
                    <g id="Group-2" transform="translate(16.000000, 58.000000)">
                        <path d="M33.372973,0 L50.172973,0 L50.172973,-4.4408921e-16 C51.7193703,-7.28157785e-16 52.972973,1.2536027 52.972973,2.8 L52.972973,19.6 C52.972973,21.1463973 51.7193703,22.4 50.172973,22.4 L33.372973,22.4 C31.8265757,22.4 30.572973,21.1463973 30.572973,19.6 L30.572973,2.8 C30.572973,1.2536027 31.8265757,7.28157785e-16 33.372973,4.4408921e-16 L33.372973,0 Z M2.8,0 L19.6,0 C21.1463973,-2.84068575e-16 22.4,1.2536027 22.4,2.8 L22.4,19.6 C22.4,21.1463973 21.1463973,22.4 19.6,22.4 L2.8,22.4 C1.2536027,22.4 2.94992669e-14,21.1463973 2.93098879e-14,19.6 L2.84217094e-14,2.8 L2.84217094e-14,2.8 C2.82323304e-14,1.2536027 1.2536027,1.172247e-15 2.8,8.8817842e-16 L2.8,0 Z M67.0738739,0 L83.8738739,0 C85.4202712,-2.84068575e-16 86.6738739,1.2536027 86.6738739,2.8 L86.6738739,19.6 C86.6738739,21.1463973 85.4202712,22.4 83.8738739,22.4 L67.0738739,22.4 C65.5274766,22.4 64.2738739,21.1463973 64.2738739,19.6 L64.2738739,2.8 L64.2738739,2.8 C64.2738739,1.2536027 65.5274766,1.172247e-15 67.0738739,8.8817842e-16 L67.0738739,0 Z M100.774775,0 L117.574775,0 C119.121172,-2.84068575e-16 120.374775,1.2536027 120.374775,2.8 L120.374775,19.6 C120.374775,21.1463973 119.121172,22.4 117.574775,22.4 L100.774775,22.4 C99.2283775,22.4 97.9747748,21.1463973 97.9747748,19.6 L97.9747748,2.8 L97.9747748,2.8 C97.9747748,1.2536027 99.2283775,1.172247e-15 100.774775,8.8817842e-16 L100.774775,0 Z M134.475676,0 L151.275676,0 C152.822073,-2.84068575e-16 154.075676,1.2536027 154.075676,2.8 L154.075676,19.6 C154.075676,21.1463973 152.822073,22.4 151.275676,22.4 L134.475676,22.4 C132.929278,22.4 131.675676,21.1463973 131.675676,19.6 L131.675676,2.8 L131.675676,2.8 C131.675676,1.2536027 132.929278,1.172247e-15 134.475676,8.8817842e-16 L134.475676,0 Z M168.176577,0 L184.976577,0 C186.522974,-2.84068575e-16 187.776577,1.2536027 187.776577,2.8 L187.776577,19.6 C187.776577,21.1463973 186.522974,22.4 184.976577,22.4 L168.176577,22.4 L168.176577,22.4 C166.630179,22.4 165.376577,21.1463973 165.376577,19.6 L165.376577,2.8 L165.376577,2.8 C165.376577,1.2536027 166.630179,1.172247e-15 168.176577,8.8817842e-16 L168.176577,0 Z M201.877477,0 L218.677477,0 L218.677477,-4.4408921e-16 C220.223875,-7.28157785e-16 221.477477,1.2536027 221.477477,2.8 L221.477477,19.6 C221.477477,21.1463973 220.223875,22.4 218.677477,22.4 L201.877477,22.4 L201.877477,22.4 C200.33108,22.4 199.077477,21.1463973 199.077477,19.6 L199.077477,2.8 C199.077477,1.2536027 200.33108,7.28157785e-16 201.877477,4.4408921e-16 L201.877477,0 Z M235.578378,0 L252.378378,0 C253.924776,-2.84068575e-16 255.178378,1.2536027 255.178378,2.8 L255.178378,19.6 C255.178378,21.1463973 253.924776,22.4 252.378378,22.4 L235.578378,22.4 C234.031981,22.4 232.778378,21.1463973 232.778378,19.6 L232.778378,2.8 L232.778378,2.8 C232.778378,1.2536027 234.031981,1.172247e-15 235.578378,8.8817842e-16 L235.578378,0 Z M269.279279,0 L286.079279,0 C287.625677,-2.84068575e-16 288.879279,1.2536027 288.879279,2.8 L288.879279,19.6 C288.879279,21.1463973 287.625677,22.4 286.079279,22.4 L269.279279,22.4 C267.732882,22.4 266.479279,21.1463973 266.479279,19.6 L266.479279,2.8 L266.479279,2.8 C266.479279,1.2536027 267.732882,1.172247e-15 269.279279,8.8817842e-16 L269.279279,0 Z M302.98018,0 L319.78018,0 L319.78018,-4.4408921e-16 C321.326577,-7.28157785e-16 322.58018,1.2536027 322.58018,2.8 L322.58018,19.6 C322.58018,21.1463973 321.326577,22.4 319.78018,22.4 L302.98018,22.4 L302.98018,22.4 C301.433783,22.4 300.18018,21.1463973 300.18018,19.6 L300.18018,2.8 C300.18018,1.2536027 301.433783,7.28157785e-16 302.98018,4.4408921e-16 L302.98018,0 Z M336.681081,0 L353.481081,0 L353.481081,-4.4408921e-16 C355.027478,-7.28157785e-16 356.281081,1.2536027 356.281081,2.8 L356.281081,19.6 C356.281081,21.1463973 355.027478,22.4 353.481081,22.4 L336.681081,22.4 L336.681081,22.4 C335.134684,22.4 333.881081,21.1463973 333.881081,19.6 L333.881081,2.8 C333.881081,1.2536027 335.134684,7.28157785e-16 336.681081,4.4408921e-16 L336.681081,0 Z" id="Combined-Shape" fill="url(#linearGradient-4)" opacity="0.75"></path>
                        <g id="Group" transform="translate(7.700000, 4.200000)" font-size="10.5" font-family="Rubik-Medium, Rubik" letter-spacing="0.0419999991" fill="#FFFFFF" font-weight="400">
                            <text id="10">
                                <tspan x="332.5" y="10">10</tspan>
                            </text>
                            <text id="9">
                                <tspan x="300.608" y="10">9</tspan>
                            </text>
                            <text id="8">
                                <tspan x="266.7665" y="10">8</tspan>
                            </text>
                            <text id="7">
                                <tspan x="234.052" y="10">7</tspan>
                            </text>
                            <text id="6">
                                <tspan x="199.724" y="10">6</tspan>
                            </text>
                            <text id="5">
                                <tspan x="165.8765" y="10">5</tspan>
                            </text>
                            <text id="4">
                                <tspan x="131.68225" y="10">4</tspan>
                            </text>
                            <text id="3">
                                <tspan x="98.14525" y="10">3</tspan>
                            </text>
                            <text id="2">
                                <tspan x="65.366" y="10">2</tspan>
                            </text>
                            <text id="0">
                                <tspan x="0.0560000005" y="10.7">0</tspan>
                            </text>
                            <text id="1-copy">
                                <tspan x="31.535" y="10">1</tspan>
                            </text>
                        </g>
                    </g>
                </g>
            </g>
        </g>
    </g>
</svg>