<?xml version="1.0" encoding="UTF-8" standalone="no"?>
<svg width="111px" height="104px" viewBox="0 0 111 104" version="1.1" xmlns="http://www.w3.org/2000/svg" xmlns:xlink="http://www.w3.org/1999/xlink">
    <!-- Generator: Sketch 47 (45396) - http://www.bohemiancoding.com/sketch -->
    <title>Group 29</title>
    <desc>Created with Sketch.</desc>
    <defs></defs>
    <g id="Site" stroke="none" stroke-width="1" fill="none" fill-rule="evenodd">
        <g id="Home-1" transform="translate(-914.000000, -3235.000000)">
            <g id="Group-29" transform="translate(916.000000, 3237.000000)">
                <path d="M50,100 C77.6142375,100 100,77.6142375 100,50 C100,22.3857625 77.6142375,0 50,0 C22.3857625,0 0,22.3857625 0,50" id="Oval-10-Copy" stroke="#FFFFFF" stroke-width="3" opacity="0.198752332" stroke-linecap="round" transform="translate(50.000000, 50.000000) scale(-1, -1) translate(-50.000000, -50.000000) "></path>
                <circle id="Oval-11-Copy" stroke="#FFFFFF" stroke-width="3" opacity="0.198752332" cx="86.5" cy="12.5" r="8.5"></circle>
                <circle id="Oval-11-Copy-2" stroke="#FFFFFF" stroke-width="2" opacity="0.19688666" cx="103.5" cy="27.5" r="4.5"></circle>
                <g id="Group-15" transform="translate(50.000000, 50.000000) rotate(-8.000000) translate(-50.000000, -50.000000) translate(20.000000, 32.000000)" fill="#FFFFFF">
                    <g id="voice-announcer" transform="translate(0.000000, 0.000000)">
                        <path d="M37.2660621,4.48644478 C37.161689,4.06953448 36.8112425,3.78947368 36.3946116,3.78947368 C36.2296534,3.78947368 36.0631159,3.83485456 35.9128015,3.92095099 L5.87259911,21.0740741 C5.4334283,21.3248706 5.19453316,21.8797614 5.31570353,22.3652378 L6.95667194,28.9020633 C7.07841658,29.3875397 7.55276126,29.7685412 8.0596956,29.7890403 L10.8380001,29.9011495 C10.8380001,29.9011495 11.1992142,29.8916774 11.3314392,30.2639137 C11.7358668,31.3987184 12.1654187,32.5291405 13.0144727,33.4370408 C14.2774297,34.7884296 15.9996569,35.5743245 17.8632975,35.6499593 L26.3229706,35.9939209 C26.420596,35.9978794 26.5176472,36 26.6152726,36 C29.6917653,36 32.4857186,34.1091301 33.2311174,31.3192665 C33.3656395,30.8149874 33.8198848,30.827711 33.8198848,30.827711 L42.7563433,31.1877892 C42.7709871,31.1883547 42.7849131,31.1883547 42.7995569,31.1883547 C43.091141,31.1883547 43.3570267,31.0657839 43.5274405,30.8508963 C43.6991464,30.635019 43.7568602,30.3490205 43.6862254,30.0662737 L37.2660621,4.48644478 Z M26.4414132,33.168714 L17.9815965,32.824611 C16.8846026,32.779937 15.870734,32.3176458 15.1264837,31.5218547 C14.8264291,31.2005128 14.5954302,30.8360521 14.406927,30.4544851 C14.1658783,29.9667467 14.7961365,30.0607601 14.7961365,30.0607601 L29.9773197,30.6726244 C29.9773197,30.6726244 30.4607091,30.6173474 30.178026,31.1436807 C29.4854599,32.4308859 28.0368709,33.2327561 26.4414132,33.168714 L26.4414132,33.168714 Z" id="Fill-1"></path>
                        <path d="M48.9493025,31.079712 L41.3560393,1.27386696 C41.1649742,0.523806593 40.4758222,-3.32534e-12 39.6796444,-3.32534e-12 C39.5407013,-3.32534e-12 39.4005869,0.0167595385 39.2644256,0.0494264356 C38.8167037,0.156517046 38.4386731,0.426658082 38.2001711,0.810139047 C37.9616692,1.19347798 37.8913924,1.64342898 38.0022248,2.07775668 L45.5956344,31.8841698 C45.7871387,32.6342302 46.4762907,33.1578947 47.2718828,33.1578947 C47.4108259,33.1578947 47.5509403,33.1412772 47.6871017,33.1086103 C48.6112418,32.8866175 49.177995,31.9767734 48.9493025,31.079712 L48.9493025,31.079712 Z" id="Fill-3"></path>
                        <path d="M3.5342329,22.6129526 C3.33567433,21.8495328 2.62050679,21.3157895 1.79431885,21.3157895 C1.64985857,21.3157895 1.50465518,21.3323364 1.36301872,21.3661373 C0.403368507,21.5914296 -0.184727496,22.5184797 0.0526213329,23.4322358 L1.74958372,29.9659948 C1.9475478,30.729556 2.66345845,31.2631579 3.48949777,31.2631579 C3.63410667,31.2631579 3.77931005,31.2460453 3.92035203,31.2129515 C4.38538928,31.1034875 4.77775053,30.8284131 5.02565149,30.438359 C5.27295798,30.048305 5.34622847,29.5898005 5.23119528,29.1467116 L3.5342329,22.6129526 Z" id="Fill-4"></path>
                    </g>
                    <g id="Group-6" transform="translate(53.500000, 13.500000) rotate(-11.000000) translate(-53.500000, -13.500000) translate(49.000000, 6.000000)">
                        <path d="M1.95289885,3.13250797 C1.51070057,2.71056196 0.788565532,2.70539996 0.340055951,3.11988974 C-0.10845363,3.53437951 -0.11395057,4.21251385 0.327433348,4.63445986 C1.21162632,5.47835187 1.71978788,6.69409933 1.71978788,7.96815831 C1.71978788,9.24298204 1.21162632,10.4589207 0.327433348,11.3035774 C-0.11395057,11.7247587 -0.10845363,12.402893 0.340055951,12.8173828 C0.562783814,13.0227159 0.851474956,13.125 1.1401661,13.125 C1.43516854,13.125 1.72935662,13.0181274 1.95289885,12.8045734 C3.25323053,11.5626335 4,9.80009607 4,7.96815831 C4,6.1369853 3.25404489,4.37444782 1.95289885,3.13250797 L1.95289885,3.13250797 Z" id="Fill-4"></path>
                        <path d="M5.93057797,0.313052991 C5.49341176,-0.0995972881 4.78029948,-0.104832543 4.33689379,0.300525773 C3.89268301,0.706631983 3.88724862,1.36907872 4.32360974,1.78172899 C5.86295004,3.23526015 6.74593722,5.31963954 6.74593722,7.49974931 C6.74593722,9.68060696 5.86295004,11.7651733 4.32360974,13.2185175 C3.88724862,13.6304199 3.89268301,14.2936145 4.33689379,14.6989728 C4.55628199,14.8997823 4.84168792,15 5.12709385,15 C5.41873926,15 5.70978085,14.8954819 5.93057797,14.6873805 C7.88132146,12.8453186 9,10.2254474 9,7.49974931 C9,4.77479907 7.88132146,2.15567578 5.93057797,0.313052991 L5.93057797,0.313052991 Z" id="Fill-5"></path>
                    </g>
                </g>
            </g>
        </g>
    </g>
</svg>