<?xml version="1.0" encoding="UTF-8" standalone="no"?>
<svg width="114px" height="104px" viewBox="0 0 114 104" version="1.1" xmlns="http://www.w3.org/2000/svg" xmlns:xlink="http://www.w3.org/1999/xlink">
    <!-- Generator: Sketch 47 (45396) - http://www.bohemiancoding.com/sketch -->
    <title>Group 28</title>
    <desc>Created with Sketch.</desc>
    <defs></defs>
    <g id="Site" stroke="none" stroke-width="1" fill="none" fill-rule="evenodd">
        <g id="Home-1" transform="translate(-422.000000, -3230.000000)">
            <g id="Group-28" transform="translate(423.000000, 3232.000000)">
                <g id="noun_545617_cc" transform="translate(35.000000, 31.000000)" fill="#FFFFFF">
                    <g id="Group">
                        <path d="M46.8061856,16.1738636 L46.8061856,31.5659091 C46.8061856,34.0090909 45.0618557,36.0613636 42.7845361,36.55 L42.7845361,41.0943182 C42.7845361,42.1693182 41.9123711,43 40.8948454,43 C40.4103093,43 39.9257732,42.8045455 39.5381443,42.4625 L33.8206186,36.6965909 L16.5226804,36.6965909 C13.8092784,36.6965909 11.628866,34.5465909 11.4835052,31.9079545 L14.3907216,28.9761364 L14.9721649,28.9761364 L14.9721649,31.6147727 C14.9721649,32.4454545 15.6505155,33.1784091 16.5226804,33.1784091 L35.2742268,33.1784091 L39.2474227,37.1852273 L39.2474227,33.1784091 L41.7670103,33.1784091 C42.5907216,33.1784091 43.3175258,32.4943182 43.3175258,31.6147727 L43.3175258,16.1738636 C43.3175258,15.3431818 42.6391753,14.6102273 41.7670103,14.6102273 L38.714433,14.6102273 L38.714433,11.0431818 L41.7670103,11.0431818 C44.528866,11.0920455 46.8061856,13.3886364 46.8061856,16.1738636 L46.8061856,16.1738636 Z M0,20.4738636 L0,5.08181818 C0,2.24772727 2.27731959,0 5.03917526,0 L30.2350515,0 C33.0453608,0 35.2742268,2.29659091 35.2742268,5.08181818 L35.2742268,20.4738636 C35.2742268,23.3079545 32.9969072,25.5556818 30.2350515,25.5556818 L12.985567,25.5556818 L7.26804124,31.3704545 C6.92886598,31.7125 6.4443299,31.9079545 5.95979381,31.9079545 C5.47525773,31.9079545 5.03917526,31.7125 4.65154639,31.3704545 C4.26391753,31.0284091 4.07010309,30.4909091 4.07010309,29.9534091 L4.07010309,25.4090909 C1.7443299,24.9693182 0,22.9170455 0,20.4738636 L0,20.4738636 Z M19.042268,18.6170455 C19.042268,18.1772727 18.7030928,17.8352273 18.2670103,17.8352273 L16.2319588,17.8352273 C15.7958763,17.8352273 15.456701,18.1772727 15.456701,18.6170455 L15.456701,19.9363636 C15.456701,20.3761364 15.7958763,20.7181818 16.2319588,20.7181818 L18.2670103,20.7181818 C18.7030928,20.7181818 19.042268,20.3761364 19.042268,19.9363636 L19.042268,18.6170455 L19.042268,18.6170455 Z M12.3556701,8.74659091 C12.3556701,9.03977273 12.5494845,9.28409091 12.8402062,9.28409091 L15.1175258,9.33295455 C15.5051546,9.33295455 15.8443299,9.08863636 15.9412371,8.74659091 C16.0381443,8.45340909 16.1835052,8.20909091 16.3773196,8.01363636 C16.7164948,7.72045455 17.1041237,7.57386364 17.5886598,7.57386364 C18.1701031,7.57386364 18.6546392,7.76931818 18.9453608,8.11136364 C19.2845361,8.45340909 19.4298969,8.94204545 19.4298969,9.57727273 C19.4298969,10.1636364 19.2845361,10.6522727 18.9938144,11.1409091 C18.7030928,11.5806818 18.3639175,11.9715909 17.8793814,12.2647727 C16.9587629,12.9 16.328866,13.4863636 15.9412371,14.0238636 C15.6505155,14.4147727 15.5051546,14.9522727 15.456701,15.6852273 C15.4082474,16.0272727 15.6989691,16.2715909 16.0381443,16.2715909 L18.5092784,16.2715909 C18.8,16.2715909 19.042268,16.0761364 19.0907216,15.7829545 C19.1391753,15.3920455 19.1876289,15.0988636 19.3329897,14.8545455 C19.4783505,14.5125 19.8175258,14.1704545 20.2536082,13.8772727 C21.0773196,13.4375 21.7556701,12.8511364 22.2886598,12.1181818 C22.8216495,11.3852273 23.0639175,10.5545455 23.0639175,9.62613636 C23.0639175,8.16022727 22.5793814,6.9875 21.6103093,6.10795455 C20.6412371,5.22840909 19.2845361,4.78863636 17.5886598,4.78863636 C15.9896907,4.78863636 14.7298969,5.17954545 13.7608247,5.9125 C12.8886598,6.54772727 12.4525773,7.525 12.3556701,8.74659091 L12.3556701,8.74659091 Z" id="Shape"></path>
                    </g>
                </g>
                <path d="M61,100 C88.6142375,100 111,77.6142375 111,50 C111,22.3857625 88.6142375,0 61,0 C33.3857625,0 11,22.3857625 11,50" id="Oval-10" stroke="#FFFFFF" stroke-width="3" opacity="0.19688666" stroke-linecap="round"></path>
                <circle id="Oval-11" stroke="#FFFFFF" stroke-width="3" opacity="0.19688666" cx="25.5" cy="83.5" r="8.5"></circle>
                <circle id="Oval-11-Copy-2" stroke="#FFFFFF" stroke-width="2" opacity="0.19688666" cx="4.5" cy="74.5" r="4.5"></circle>
            </g>
        </g>
    </g>
</svg>