<?xml version="1.0" encoding="UTF-8" standalone="no"?>
<svg width="43px" height="38px" viewBox="0 0 43 38" version="1.1" xmlns="http://www.w3.org/2000/svg" xmlns:xlink="http://www.w3.org/1999/xlink">
    <!-- Generator: Sketch 47 (45396) - http://www.bohemiancoding.com/sketch -->
    <title>Group 76</title>
    <desc>Created with Sketch.</desc>
    <defs></defs>
    <g id="Site" stroke="none" stroke-width="1" fill="none" fill-rule="evenodd">
        <g id="Home-1" transform="translate(-383.000000, -1306.000000)" fill="#422E86">
            <g id="Group-38" transform="translate(0.000000, 1121.000000)">
                <g id="Group-41-Copy-4">
                    <g id="Group-Copy" transform="translate(383.000000, 185.000000)">
                        <g id="Group-74">
                            <g id="Group-76">
                                <ellipse id="Oval" cx="38.3711592" cy="15.5573297" rx="4.31486808" ry="4.61976485"></ellipse>
                                <path d="M21.1919605,37.8179767 C20.1029957,37.7637713 19.2810133,37.0048961 19.0933166,35.9758545 L13.788456,6.58793882 L10.9365978,16.8981447 C10.6696154,17.8635166 9.8371155,18.5268871 8.88892324,18.5268871 L0.447962551,18.5268871 L0.447962551,15.6178655 L7.29269173,15.6178655 L11.9016514,1.78659437 C12.1799604,0.784225185 13.0440127,0.13978354 14.0520738,0.159572803 C15.0358637,0.21205737 15.8594642,0.970932578 16.0447338,1.99911384 L21.5113159,29.9177814 L24.478272,15.6178655 C24.7452544,14.6524936 25.5793724,13.9899835 26.5243285,13.9899835 L37.8434859,13.9899835 L37.8434859,16.8981447 L28.122178,16.8981447 L23.237208,36.1892344 C22.9694165,37.1589082 22.1352986,37.8179767 21.1919605,37.8179767 Z" id="Shape" fill-rule="nonzero"></path>
                            </g>
                        </g>
                    </g>
                </g>
            </g>
        </g>
    </g>
</svg>