<?xml version="1.0" encoding="UTF-8" standalone="no"?>
<svg width="65px" height="40px" viewBox="0 0 65 40" version="1.1" xmlns="http://www.w3.org/2000/svg" xmlns:xlink="http://www.w3.org/1999/xlink">
    <!-- Generator: Sketch 47 (45396) - http://www.bohemiancoding.com/sketch -->
    <title>Group 30</title>
    <desc>Created with Sketch.</desc>
    <defs></defs>
    <g id="Site" stroke="none" stroke-width="1" fill="none" fill-rule="evenodd">
        <g id="Home-1" transform="translate(-502.000000, -1301.000000)" fill="#422E86">
            <g id="Group-38" transform="translate(0.000000, 1121.000000)">
                <g id="Group-41-Copy-4">
                    <g id="Group-30" transform="translate(503.000000, 181.000000)">
                        <g id="noun_931943_cc-copy" fill-rule="nonzero" stroke="#422E86">
                            <g id="Group">
                                <path d="M32.746196,7.38064516 C33.434451,7.38064516 33.992392,6.82592465 33.992392,6.14164223 L33.992392,1.34257087 C33.992392,0.658288445 33.434451,0.103567937 32.746196,0.103567937 C32.0579409,0.103567937 31.5,0.658288445 31.5,1.34257087 L31.5,6.12512219 C31.4955545,6.45657914 31.6248847,6.77598507 31.8590753,7.01192849 C32.093266,7.2478719 32.4127851,7.38067463 32.746196,7.38064516 Z" id="Shape"></path>
                                <path d="M6.16068168,28.8814761 L1.35036519,28.8814761 C0.662110149,28.8814761 0.104169203,29.4361966 0.104169203,30.120479 C0.104169203,30.8047614 0.662110149,31.3594819 1.35036519,31.3594819 L6.16068168,31.3594819 C6.84893672,31.3594819 7.40687766,30.8047614 7.40687766,30.120479 C7.40687766,29.4361966 6.84893672,28.8814761 6.16068168,28.8814761 Z" id="Shape"></path>
                                <path d="M61.6496348,28.8814761 L56.8393183,28.8814761 C56.1510633,28.8814761 55.5931223,29.4361966 55.5931223,30.120479 C55.5931223,30.8047614 56.1510633,31.3594819 56.8393183,31.3594819 L61.6662508,31.3594819 C62.3545058,31.3594819 62.9124467,30.8047614 62.9124467,30.120479 C62.9124467,29.4361966 62.3545058,28.8814761 61.6662508,28.8814761 L61.6496348,28.8814761 Z" id="Shape"></path>
                                <path d="M13.5880097,17.1522483 C14.0917083,17.1518078 14.5456129,16.8499397 14.7383101,16.3872441 C14.9310072,15.9245485 14.8246022,15.3920163 14.4686549,15.0376833 L10.6719111,11.2628543 C10.1808937,10.8079604 9.41572943,10.8213829 8.94115794,11.2932152 C8.46658644,11.7650475 8.45308601,12.5257952 8.91062082,13.0139785 L12.7073646,16.7888074 C12.9408475,17.021232 13.2576094,17.1519591 13.5880097,17.1522483 L13.5880097,17.1522483 Z" id="Shape"></path>
                                <path d="M41.0042473,20.4234449 L34.3578687,27.0314605 C31.7530982,25.3389554 28.2830506,25.8776856 26.3212771,28.2791537 C24.3595037,30.6806218 24.5407667,34.1677955 26.7410803,36.3554089 C28.9413939,38.5430223 32.4488124,38.7232391 34.8642223,36.772789 C37.2796322,34.8223389 37.82149,31.3723204 36.119159,28.7825847 L42.7655376,22.174569 C43.2230724,21.6863858 43.209572,20.925638 42.7350005,20.4538057 C42.260429,19.9819735 41.4952647,19.968551 41.0042473,20.4234449 L41.0042473,20.4234449 Z M33.5270714,34.6058985 C32.1308762,35.9899829 29.8708385,35.9877934 28.477359,34.6010064 C27.0838794,33.2142194 27.0838794,30.9672256 28.477359,29.5804386 C29.8708385,28.1936516 32.1308762,28.1914621 33.5270714,29.5755466 C34.9317486,30.9562109 34.946618,33.2070083 33.5603032,34.6058985 L33.5270714,34.6058985 Z" id="Shape"></path>
                            </g>
                        </g>
                        <circle id="Oval-12-Copy" cx="51" cy="13" r="2"></circle>
                    </g>
                </g>
            </g>
        </g>
    </g>
</svg>