<?xml version="1.0" encoding="UTF-8" standalone="no"?>
<svg width="18px" height="54px" viewBox="0 0 18 54" version="1.1" xmlns="http://www.w3.org/2000/svg" xmlns:xlink="http://www.w3.org/1999/xlink">
    <!-- Generator: Sketch 47 (45396) - http://www.bohemiancoding.com/sketch -->
    <title>noun_980877_cc</title>
    <desc>Created with Sketch.</desc>
    <defs></defs>
    <g id="Site" stroke="none" stroke-width="1" fill="none" fill-rule="evenodd">
        <g id="Home-1" transform="translate(-1033.000000, -1297.000000)" fill="#422E86">
            <g id="Group-38" transform="translate(0.000000, 1121.000000)">
                <g id="Group-37" transform="translate(984.000000, 154.000000)">
                    <g id="Group-16-Copy" transform="translate(49.000000, 22.000000)">
                        <g id="noun_980877_cc">
                            <g id="Group">
                                <g id="Group-31" transform="translate(3.000000, 16.000000)">
                                    <path d="M7.45293006,23.9375 L7.45293006,7.02639925 C7.45293006,6.07014925 6.69073724,5.28264925 5.76521739,5.28264925 C4.83969754,5.28264925 4.07750473,6.07014925 4.07750473,7.02639925 L4.07750473,23.9375 C2.17202268,24.66875 0.810964083,26.525 0.810964083,28.71875 C0.810964083,31.53125 3.04310019,33.8375 5.76521739,33.8375 C8.48733459,33.8375 10.7194707,31.53125 10.7194707,28.71875 C10.7194707,26.525 9.3584121,24.66875 7.45293006,23.9375 Z" id="Shape" fill-rule="nonzero"></path>
                                    <ellipse id="Oval-12" cx="5.60869565" cy="2.53731343" rx="1.56521739" ry="1.6119403"></ellipse>
                                </g>
                                <path d="M14.2094518,37.74375 L14.2094518,5.85 C14.2094518,2.75625 11.7595463,0.225 8.76521739,0.225 C5.77088847,0.225 3.32098299,2.75625 3.32098299,5.85 L3.32098299,37.74375 C1.30661626,39.43125 0.054442344,42.01875 0.054442344,44.71875 C0.054442344,49.66875 3.97429112,53.71875 8.76521739,53.71875 C13.5561437,53.71875 17.4215501,49.66875 17.4215501,44.71875 C17.4215501,42.01875 16.2238185,39.43125 14.2094518,37.74375 Z M8.76521739,51.80625 C5.00869565,51.80625 1.95992439,48.65625 1.95992439,44.775 C1.95992439,42.3 3.2120983,40.05 5.22646503,38.75625 L5.22646503,5.90625 C5.22646503,3.88125 6.80529301,2.19375 8.81965974,2.19375 C10.7795841,2.19375 12.4128544,3.825 12.4128544,5.90625 L12.4128544,38.75625 C14.3727788,40.05 15.6793951,42.3 15.6793951,44.775 C15.5705104,48.65625 12.5217391,51.80625 8.76521739,51.80625 Z" id="Shape" fill-rule="nonzero"></path>
                            </g>
                        </g>
                    </g>
                </g>
            </g>
        </g>
    </g>
</svg>