<?xml version="1.0" encoding="UTF-8" standalone="no"?>
<svg width="60px" height="60px" viewBox="0 0 60 60" version="1.1" xmlns="http://www.w3.org/2000/svg" xmlns:xlink="http://www.w3.org/1999/xlink">
    <!-- Generator: Sketch 47 (45396) - http://www.bohemiancoding.com/sketch -->
    <title>Icon Grupo Copy 2</title>
    <desc>Created with Sketch.</desc>
    <defs></defs>
    <g id="Site" stroke="none" stroke-width="1" fill="none" fill-rule="evenodd">
        <g id="Home-1" transform="translate(-692.000000, -1288.000000)" fill-rule="nonzero" fill="#422E86">
            <g id="Group-38" transform="translate(0.000000, 1121.000000)">
                <g id="Icon-Grupo-Copy-2" transform="translate(692.000000, 167.000000)">
                    <path d="M21.5089947,23.9044875 C22.8201981,23.9044875 23.8862433,22.8376016 23.8862433,21.52359 L23.8862433,7.6308975 C23.8862433,6.31688592 22.8201981,5.25 21.5089947,5.25 L7.62724867,5.25 C6.31604529,5.25 5.25,6.31688592 5.25,7.6308975 L5.25,21.52359 C5.25,22.8376016 6.31604529,23.9044875 7.62724867,23.9044875 L21.5089947,23.9044875 Z M21.5089947,28.4044875 L7.62724867,28.4044875 C3.82996952,28.4044875 0.75,25.3220893 0.75,21.52359 L0.75,7.6308975 C0.75,3.83239824 3.82996952,0.75 7.62724867,0.75 L21.5089947,0.75 C25.3062738,0.75 28.3862433,3.83239824 28.3862433,7.6308975 L28.3862433,21.52359 C28.3862433,25.3220893 25.3062738,28.4044875 21.5089947,28.4044875 Z" id="Stroke-158-Copy"></path>
                    <path d="M53.0089947,23.9044875 C54.3228791,23.9044875 55.3862433,22.8395493 55.3862433,21.52359 L55.3862433,7.6308975 C55.3862433,6.31493822 54.3228791,5.25 53.0089947,5.25 L39.1272487,5.25 C37.8133642,5.25 36.75,6.31493822 36.75,7.6308975 L36.75,21.52359 C36.75,22.8395493 37.8133642,23.9044875 39.1272487,23.9044875 L53.0089947,23.9044875 Z M53.0089947,28.4044875 L39.1272487,28.4044875 C35.3265917,28.4044875 32.25,25.3233419 32.25,21.52359 L32.25,7.6308975 C32.25,3.8311456 35.3265917,0.75 39.1272487,0.75 L53.0089947,0.75 C56.8096517,0.75 59.8862433,3.8311456 59.8862433,7.6308975 L59.8862433,21.52359 C59.8862433,25.3233419 56.8096517,28.4044875 53.0089947,28.4044875 Z" id="Stroke-159-Copy"></path>
                    <path d="M21.5089947,55.4044875 C22.8201981,55.4044875 23.8862433,54.3376016 23.8862433,53.02359 L23.8862433,39.1308975 C23.8862433,37.8168859 22.8201981,36.75 21.5089947,36.75 L7.62724867,36.75 C6.31604529,36.75 5.25,37.8168859 5.25,39.1308975 L5.25,53.02359 C5.25,54.3376016 6.31604529,55.4044875 7.62724867,55.4044875 L21.5089947,55.4044875 Z M21.5089947,59.9044875 L7.62724867,59.9044875 C3.82996952,59.9044875 0.75,56.8220893 0.75,53.02359 L0.75,39.1308975 C0.75,35.3323982 3.82996952,32.25 7.62724867,32.25 L21.5089947,32.25 C25.3062738,32.25 28.3862433,35.3323982 28.3862433,39.1308975 L28.3862433,53.02359 C28.3862433,56.8220893 25.3062738,59.9044875 21.5089947,59.9044875 Z" id="Stroke-160-Copy"></path>
                    <path d="M53.0089947,55.4044875 C54.3228791,55.4044875 55.3862433,54.3395493 55.3862433,53.02359 L55.3862433,39.1308975 C55.3862433,37.8149382 54.3228791,36.75 53.0089947,36.75 L39.1272487,36.75 C37.8133642,36.75 36.75,37.8149382 36.75,39.1308975 L36.75,53.02359 C36.75,54.3395493 37.8133642,55.4044875 39.1272487,55.4044875 L53.0089947,55.4044875 Z M53.0089947,59.9044875 L39.1272487,59.9044875 C35.3265917,59.9044875 32.25,56.8233419 32.25,53.02359 L32.25,39.1308975 C32.25,35.3311456 35.3265917,32.25 39.1272487,32.25 L53.0089947,32.25 C56.8096517,32.25 59.8862433,35.3311456 59.8862433,39.1308975 L59.8862433,53.02359 C59.8862433,56.8233419 56.8096517,59.9044875 53.0089947,59.9044875 Z" id="Stroke-161-Copy"></path>
                </g>
            </g>
        </g>
    </g>
</svg>