<?xml version="1.0" encoding="UTF-8" standalone="no"?>
<svg width="45px" height="43px" viewBox="0 0 45 43" version="1.1" xmlns="http://www.w3.org/2000/svg" xmlns:xlink="http://www.w3.org/1999/xlink">
    <!-- Generator: Sketch 47 (45396) - http://www.bohemiancoding.com/sketch -->
    <title>Group 63 Copy 2</title>
    <desc>Created with Sketch.</desc>
    <defs></defs>
    <g id="Site" stroke="none" stroke-width="1" fill="none" fill-rule="evenodd">
        <g id="Home-1" transform="translate(-888.000000, -1301.000000)">
            <g id="Group-38" transform="translate(0.000000, 1121.000000)">
                <g id="Group-41-Copy-4">
                    <g id="Group-63-Copy-2" transform="translate(888.000000, 180.000000)">
                        <rect id="Rectangle-32" stroke="#FFFFFF" opacity="0.01" x="0.5" y="0.5" width="44" height="42"></rect>
                        <g id="Group-5" transform="translate(2.000000, 0.000000)" fill="#422E86">
                            <g id="Group-6" transform="translate(11.651867, 12.840284)">
                                <path d="M17.8799597,0 L1.48176461,0 C0.642097999,0 0,0.636879584 0,1.46972212 C0,2.30256465 0.642097999,2.93944423 1.48176461,2.93944423 L17.8799597,2.93944423 C18.7196263,2.93944423 19.3617243,2.30256465 19.3617243,1.46972212 C19.3617243,0.636879584 18.6702341,0 17.8799597,0 Z" id="Shape" fill-rule="nonzero"></path>
                                <path d="M18.385842,6.63428571 L1.98764697,6.63428571 C1.14798035,6.63428571 0.505882353,7.2711653 0.505882353,8.10400783 C0.505882353,8.93685036 1.14798035,9.57372995 1.98764697,9.57372995 L18.385842,9.57372995 C19.2255086,9.57372995 19.8676066,8.93685036 19.8676066,8.10400783 C19.8676066,7.2711653 19.1761165,6.63428571 18.385842,6.63428571 Z" id="Shape" fill-rule="nonzero"></path>
                                <path d="M13.3270185,13.5142857 L1.98764697,13.5142857 C1.14798035,13.5142857 0.505882353,14.1511653 0.505882353,14.9840078 C0.505882353,15.8168504 1.14798035,16.4537299 1.98764697,16.4537299 L13.3270185,16.4537299 C14.1666851,16.4537299 14.8087831,15.8168504 14.8087831,14.9840078 C14.8087831,14.1511653 14.1172929,13.5142857 13.3270185,13.5142857 Z" id="Shape" fill-rule="nonzero"></path>
                                <ellipse id="Oval-2" stroke="#422E86" stroke-width="0.55" cx="18.410439" cy="14.7428571" rx="1.26470588" ry="1.22857143"></ellipse>
                            </g>
                            <path d="M42.8723895,21.2129892 C42.8723895,9.50420302 33.2409195,0 21.4361947,0 C9.63146998,0 0,9.50420302 0,21.2129892 C0,32.9217754 9.63146998,42.4749692 21.4361947,42.4749692 C23.8564103,42.4749692 26.2272336,42.0830433 28.4992727,41.2991915 L38.229527,42.7689136 L38.4764878,42.7689136 C38.871625,42.7689136 39.3161544,42.5729507 39.5631151,42.2790062 C39.9088602,41.9360711 40.0076445,41.397173 39.9088602,40.9562563 L38.229527,34.3914975 C39.5631151,32.7258125 40.6003504,30.9131552 41.3906248,28.9535257 C42.3784679,26.5039888 42.8723895,23.9074798 42.8723895,21.2129892 Z M35.4635664,33.0687476 L35.4141742,33.1177384 L35.4141742,33.1177384 C35.1672135,33.4606735 35.0684292,33.9505809 35.1672135,34.3425068 L36.4514095,39.4865342 L28.5486649,38.3107565 C28.3017041,38.2617658 28.0547433,38.3107565 27.8077826,38.408738 C25.7333121,39.1925898 23.5600573,39.535525 21.3868026,39.535525 C11.2120189,39.535525 2.91413707,31.3050811 2.91413707,21.2129892 C2.91413707,11.1208974 11.2614111,2.93944423 21.4361947,2.93944423 C31.6109784,2.93944423 39.9088602,11.1698881 39.9088602,21.26198 C39.9088602,23.5645446 39.4643308,25.8181185 38.6246642,27.9247202 L38.6246642,27.9247202 C37.8837819,29.7373775 36.8465467,31.501044 35.4635664,33.0687476 Z" id="Shape" fill-rule="nonzero"></path>
                        </g>
                    </g>
                </g>
            </g>
        </g>
    </g>
</svg>