<?xml version="1.0" encoding="utf-8"?>
<!-- Generator: Adobe Illustrator 16.0.0, SVG Export Plug-In . SVG Version: 6.00 Build 0)  -->
<!DOCTYPE svg PUBLIC "-//W3C//DTD SVG 1.1//EN" "http://www.w3.org/Graphics/SVG/1.1/DTD/svg11.dtd">
<svg version="1.1" id="Layer_1" xmlns="http://www.w3.org/2000/svg" xmlns:xlink="http://www.w3.org/1999/xlink" x="0px" y="0px"
	 width="656px" height="425.978px" viewBox="109.5 125 656 425.978" enable-background="new 109.5 125 656 425.978"
	 xml:space="preserve">
<filter  filterUnits="objectBoundingBox" id="filter-1" height="106.4%" y="-4.7%" width="107.3%" x="-2.6%">
	<feOffset  in="SourceAlpha" result="shadowOffsetOuter1" dx="5" dy="-6"></feOffset>
	<feGaussianBlur  stdDeviation="3.5" in="shadowOffsetOuter1" result="shadowBlurOuter1"></feGaussianBlur>
	
		<feColorMatrix  in="shadowBlurOuter1" result="shadowMatrixOuter1" values="0 0 0 0 0   0 0 0 0 0   0 0 0 0 0  0 0 0 0.152796649 0" type="matrix">
		</feColorMatrix>
	<feMerge>
		<feMergeNode  in="shadowMatrixOuter1"></feMergeNode>
		<feMergeNode  in="SourceGraphic"></feMergeNode>
	</feMerge>
</filter>
<title>Group 35</title>
<desc>Created with Sketch.</desc>
<g id="Site">
	<g id="Home-1" transform="translate(-786.000000, -184.000000)">
		<g id="Group-35" transform="translate(790.000000, 197.000000)">
			<g id="Group-33">
				<g id="Group-21" filter="url(#filter-1)">
					<path id="Rectangle-10_2_" fill="#FFFFFF" d="M289,112h315c1.655,0,3,1.344,3,3v412.999c0,1.657-1.345,3-3,3H289
						c-1.657,0-3-1.343-3-3V115C286,113.344,287.343,112,289,112z"/>
					<path id="Rectangle-3_2_" fill="#EEE7FF" d="M584,112h20l0,0c1.655,0,3,1.344,3,3v413.999h-23V112z"/>
					<path id="Rectangle-43-Copy-6_2_" opacity="0.85" fill="#917FCF" enable-background="new    " d="M323,378h37
						c1.655,0,3,1.344,3,3v37c0,1.657-1.345,3-3,3h-37c-1.657,0-3-1.343-3-3v-37C320,379.344,321.343,378,323,378z"/>
					<path id="Rectangle-17-Copy-2_2_" fill="#F0F0F0" d="M377,378h110c1.104,0,2,0.896,2,2v13c0,1.104-0.896,2-2,2H377
						c-1.104,0-2-0.896-2-2v-13C375,378.895,375.896,378,377,378z"/>
					<path id="Rectangle-17-Copy-4_2_" fill="#DCDCDC" d="M377,456h88c1.104,0,2,0.896,2,2v13c0,1.104-0.896,2-2,2h-88
						c-1.104,0-2-0.896-2-2v-13C375,456.895,375.896,456,377,456z"/>
					<path id="Rectangle-17-Copy-3_2_" fill="#DCDCDC" d="M377,400h168c1.104,0,2,0.896,2,2v13c0,1.104-0.896,2-2,2H377
						c-1.104,0-2-0.896-2-2v-13C375,400.895,375.896,400,377,400z"/>
					<g id="Rectangle-16-Copy-7_2_">
						<g>
							<path id="path-2_1_" fill="#FDFDFD" d="M314,259h246c2.209,0,4,1.791,4,4v75c0,2.209-1.791,4-4,4H314c-2.209,0-4-1.791-4-4
								v-75C310,260.791,311.791,259,314,259z"/>
						</g>
						<g>
						</g>
					</g>
					<path id="Rectangle-17-Copy-5_2_" fill="#F0F0F0" d="M377,478h29c1.104,0,2,0.896,2,2v13c0,1.104-0.896,2-2,2h-29
						c-1.104,0-2-0.896-2-2v-13C375,478.895,375.896,478,377,478z"/>
					<g id="Rectangle-16-Copy-2_2_">
						<g>
						</g>
						<g>
							<path id="path-4_1_" fill="#FFFFFF" d="M360,244h322c2.209,0,4,1.791,4,4v75c0,2.209-1.791,4-4,4H360c-2.209,0-4-1.791-4-4
								v-75C356,245.791,357.791,244,360,244z"/>
						</g>
					</g>
					<g id="Rectangle-16-Copy-6_2_">
						<g>
							<path id="path-6_1_" fill="#FDFDFD" d="M314,128h246c2.209,0,4,1.791,4,4v75c0,2.209-1.791,4-4,4H314c-2.209,0-4-1.791-4-4
								v-75C310,129.791,311.791,128,314,128z"/>
						</g>
						<g>
						</g>
					</g>
					<g id="Rectangle-16-Copy-5_2_">
						<g>
						</g>
						<g>
							<path id="path-8_1_" fill="#FFFFFF" d="M211,141h322c2.209,0,4,1.791,4,4v75c0,2.209-1.791,4-4,4H211c-2.209,0-4-1.791-4-4
								v-75C207,142.791,208.791,141,211,141z"/>
						</g>
					</g>
					<path id="Rectangle-17_3_" fill="#FC6C6C" d="M443,266h51c1.104,0,2,0.896,2,2v13c0,1.104-0.896,2-2,2h-51
						c-1.104,0-2-0.896-2-2v-13C441,266.895,441.896,266,443,266z"/>
					<path id="Rectangle-17-Copy-8_2_" fill="#FC6C6C" d="M443,288h34c1.104,0,2,0.896,2,2v13c0,1.104-0.896,2-2,2h-34
						c-1.104,0-2-0.896-2-2v-13C441,288.895,441.896,288,443,288z"/>
					<path id="Rectangle-17-Copy-6_2_" fill="#6856A6" d="M502,266h55c1.104,0,2,0.896,2,2v13c0,1.104-0.896,2-2,2h-55
						c-1.105,0-2-0.896-2-2v-13C500,266.895,500.895,266,502,266z"/>
					<path id="Rectangle-17-Copy-9_2_" fill="#6856A6" d="M486,288h104c1.104,0,2,0.896,2,2v13c0,1.104-0.896,2-2,2H486
						c-1.104,0-2-0.896-2-2v-13C484,288.895,484.896,288,486,288z"/>
					<path id="Rectangle-17-Copy-7_2_" fill="#45D6A1" d="M566,266h93c1.104,0,2,0.896,2,2v13c0,1.104-0.896,2-2,2h-93
						c-1.105,0-2-0.896-2-2v-13C564,266.895,564.895,266,566,266z"/>
					<path id="Rectangle-17-Copy-10_2_" fill="#45D6A1" d="M598,288h61c1.104,0,2,0.896,2,2v13c0,1.104-0.896,2-2,2h-61
						c-1.105,0-2-0.896-2-2v-13C596,288.895,596.895,288,598,288z"/>
					<path id="Rectangle-43-Copy-3_2_" opacity="0.85" fill="#6C57B4" enable-background="new    " d="M373,258h49
						c1.655,0,3,1.344,3,3v49c0,1.656-1.345,3-3,3h-49c-1.657,0-3-1.344-3-3v-49C370,259.344,371.343,258,373,258z"/>
					<path id="_x3F_-copy_2_" fill="#DCDCDC" d="M504.076,384.293c-0.233,0.507-0.519,0.93-0.851,1.27
						c-0.333,0.341-0.764,0.737-1.293,1.19c-0.544,0.454-0.948,0.832-1.213,1.134c-0.265,0.303-0.427,0.643-0.487,1.021
						c-0.029,0.183-0.099,0.329-0.204,0.442c-0.104,0.113-0.241,0.17-0.407,0.17h-1.725c-0.166,0-0.313-0.061-0.44-0.182
						c-0.129-0.12-0.187-0.265-0.171-0.432c0.029-0.618,0.171-1.179,0.42-1.678s0.544-0.918,0.885-1.259
						c0.34-0.34,0.773-0.729,1.304-1.168c0.544-0.438,0.944-0.809,1.201-1.11c0.257-0.303,0.386-0.636,0.386-0.998
						c0-0.573-0.246-1.047-0.737-1.417c-0.49-0.371-1.13-0.556-1.915-0.556c-0.619,0-1.172,0.166-1.655,0.499
						c-0.483,0.332-0.877,0.809-1.179,1.428c-0.092,0.183-0.179,0.312-0.262,0.387s-0.216,0.112-0.396,0.112H493.5
						c-0.138,0-0.254-0.045-0.353-0.136s-0.146-0.212-0.146-0.363c0.029-0.71,0.31-1.428,0.839-2.152
						c0.529-0.728,1.239-1.323,2.132-1.792c0.892-0.47,1.844-0.703,2.856-0.703c0.968,0,1.878,0.178,2.731,0.532
						c0.854,0.355,1.546,0.882,2.075,1.576c0.528,0.695,0.794,1.513,0.794,2.449C504.429,383.208,504.312,383.786,504.076,384.293z
						 M500.165,391.061c0.121,0.121,0.182,0.266,0.182,0.432v1.995c0,0.166-0.061,0.311-0.182,0.432
						c-0.12,0.121-0.266,0.182-0.432,0.182h-1.949c-0.166,0-0.311-0.061-0.432-0.182s-0.182-0.266-0.182-0.432v-1.995
						c0-0.166,0.061-0.311,0.182-0.432s0.266-0.182,0.432-0.182h1.949C499.901,390.88,500.045,390.94,500.165,391.061z"/>
					<g id="Group-34_2_" transform="translate(123.000000, 275.000000)">
						<ellipse id="Oval-4_4_" fill="#FFFFFF" cx="214.019" cy="124.212" rx="1.914" ry="1.928"/>
						<ellipse id="Oval-4-Copy_4_" fill="#FFFFFF" cx="222.951" cy="124.212" rx="1.914" ry="1.928"/>
						<path id="Oval-3_4_" fill="#FFFFFF" d="M227.43,123.569c0-4.974-4.004-9.007-8.944-9.007s-8.944,4.033-8.944,9.007
							c0,4.976,4.004,9.009,8.944,9.009S227.43,128.544,227.43,123.569z M207,123.569c0-6.39,5.142-11.568,11.485-11.568
							s11.484,5.18,11.484,11.568c0,6.39-5.142,11.569-11.484,11.569C212.142,135.138,207,129.959,207,123.569z"/>
						<path id="Path-2_4_" fill="#FFFFFF" d="M214.99,129.989l7.656,0.021c0,0-1.73-2.688-4.007-2.579
							C216.365,127.537,214.99,129.989,214.99,129.989z"/>
					</g>
					<path id="_x3F__3_" fill="#DCDCDC" d="M483.077,462.293c-0.234,0.506-0.519,0.93-0.852,1.27
						c-0.332,0.341-0.764,0.737-1.292,1.19c-0.545,0.454-0.949,0.832-1.214,1.134c-0.265,0.303-0.427,0.643-0.487,1.021
						c-0.029,0.182-0.099,0.328-0.204,0.441c-0.104,0.113-0.241,0.17-0.407,0.17h-1.725c-0.166,0-0.313-0.061-0.44-0.182
						c-0.129-0.12-0.187-0.265-0.171-0.432c0.029-0.618,0.171-1.179,0.42-1.678s0.544-0.918,0.885-1.259
						c0.34-0.34,0.773-0.729,1.304-1.168c0.544-0.438,0.944-0.809,1.201-1.11c0.258-0.303,0.386-0.636,0.386-0.998
						c0-0.573-0.245-1.047-0.736-1.417c-0.491-0.371-1.131-0.556-1.916-0.556c-0.619,0-1.171,0.166-1.655,0.499
						c-0.483,0.332-0.877,0.809-1.179,1.428c-0.092,0.183-0.179,0.312-0.262,0.387s-0.216,0.112-0.396,0.112H472.5
						c-0.138,0-0.254-0.045-0.353-0.136s-0.146-0.212-0.146-0.363c0.03-0.71,0.31-1.428,0.839-2.153
						c0.529-0.727,1.239-1.322,2.132-1.791c0.892-0.47,1.844-0.703,2.856-0.703c0.968,0,1.879,0.178,2.731,0.533
						c0.854,0.354,1.546,0.881,2.075,1.575c0.529,0.695,0.794,1.513,0.794,2.449C483.429,461.208,483.312,461.786,483.077,462.293z
						 M479.165,469.061c0.121,0.121,0.182,0.266,0.182,0.432v1.995c0,0.166-0.061,0.311-0.182,0.432
						c-0.12,0.121-0.266,0.182-0.432,0.182h-1.949c-0.166,0-0.311-0.061-0.432-0.182s-0.182-0.266-0.182-0.432v-1.995
						c0-0.166,0.061-0.311,0.182-0.432s0.266-0.182,0.432-0.182h1.949C478.901,468.88,479.045,468.94,479.165,469.061z"/>
					<path id="Rectangle-43-Copy-10_2_" opacity="0.85" fill="#BFB1F0" enable-background="new    " d="M323,452h37
						c1.655,0,3,1.344,3,3v37c0,1.657-1.345,3-3,3h-37c-1.657,0-3-1.343-3-3v-37C320,453.344,321.343,452,323,452z"/>
					<path id="_x32_1_2_" fill="#FFFFFF" d="M393.064,279.852c0-1.033-0.312-1.866-0.934-2.5s-1.578-0.951-2.869-0.951
						c-1.197,0-2.113,0.294-2.747,0.881c-0.634,0.588-1.092,1.421-1.373,2.5c-0.07,0.281-0.205,0.506-0.405,0.67
						c-0.198,0.163-0.416,0.245-0.65,0.245h-2.781c-0.282,0-0.517-0.088-0.704-0.264c-0.188-0.177-0.271-0.405-0.247-0.687
						c0.094-1.409,0.54-2.706,1.338-3.893c0.799-1.185,1.854-2.124,3.17-2.815c1.314-0.692,2.771-1.039,4.366-1.039
						c1.854,0,3.427,0.388,4.718,1.162c1.291,0.773,2.261,1.767,2.905,2.976c0.646,1.209,0.968,2.459,0.968,3.75
						c0,0.892-0.082,1.667-0.246,2.324c-0.163,0.657-0.517,1.344-1.057,2.06s-1.338,1.508-2.395,2.377l-6.515,5.95h9.789
						c0.258,0,0.48,0.094,0.669,0.282c0.188,0.188,0.281,0.41,0.281,0.669v2.5c0,0.258-0.094,0.48-0.281,0.669
						c-0.188,0.188-0.411,0.281-0.669,0.281H380.95c-0.259,0-0.481-0.095-0.67-0.281c-0.188-0.188-0.28-0.411-0.28-0.668v-2.148
						c0-0.609,0.315-1.162,0.95-1.653l10.458-9.051C392.512,282.305,393.064,281.19,393.064,279.852z M400.652,279.712
						c0-0.307,0.129-0.552,0.388-0.74l7.642-6.021c0.188-0.142,0.387-0.276,0.599-0.405s0.423-0.193,0.635-0.193h2.746
						c0.258,0,0.48,0.094,0.669,0.281c0.188,0.188,0.281,0.411,0.281,0.669v22.747c0,0.258-0.095,0.48-0.281,0.669
						c-0.188,0.188-0.413,0.281-0.671,0.281h-2.854c-0.258,0-0.479-0.095-0.669-0.281c-0.188-0.188-0.281-0.411-0.281-0.669v-17.396
						l-5,3.908c-0.164,0.142-0.353,0.212-0.563,0.212c-0.306,0-0.563-0.13-0.774-0.388l-1.655-2.077
						C400.722,280.122,400.652,279.923,400.652,279.712z"/>
				</g>
			</g>
			<g id="Group-8" transform="translate(123.000000, 349.000000)">
				<ellipse id="Oval-4_1_" fill="#FFFFFF" cx="214.117" cy="124.667" rx="1.94" ry="2"/>
				<ellipse id="Oval-4-Copy_1_" fill="#FFFFFF" cx="223.176" cy="124.667" rx="1.941" ry="2"/>
				<path id="Oval-3_1_" fill="#FFFFFF" d="M227.706,124c0-5.154-4.058-9.333-9.061-9.333s-9.058,4.178-9.058,9.333
					c0,5.154,4.056,9.334,9.059,9.334S227.706,129.155,227.706,124z M207,124c0-6.627,5.214-12,11.646-12
					c6.434,0,11.647,5.373,11.647,12c0,6.628-5.215,12-11.647,12C212.215,136,207,130.628,207,124z"/>
				<path id="Path-2_1_" fill="#FFFFFF" d="M213.471,128.031l11.03-0.03c0,0-2.495,4.176-5.773,4.008
					C215.45,131.84,213.471,128.031,213.471,128.031z"/>
			</g>
			<path id="Rectangle-17_1_" fill="#DCDCDC" d="M289.4,159h215.2c1.325,0,2.4,1.075,2.4,2.399v15.2c0,1.325-1.075,2.399-2.4,2.399
				H289.4C288.074,179,287,177.926,287,176.6v-15.2C287,160.075,288.074,159,289.4,159z"/>
			<path id="Rectangle-17-Copy" fill="#F0F0F0" d="M289.4,186h73.2c1.325,0,2.4,1.075,2.4,2.399v15.2c0,1.325-1.075,2.399-2.4,2.399
				h-73.2C288.074,206,287,204.926,287,203.6v-15.2C287,187.075,288.074,186,289.4,186z"/>
			<path id="_x3F__1_" fill="#DCDCDC" d="M526.57,167.427c-0.287,0.598-0.635,1.097-1.042,1.498s-0.936,0.87-1.583,1.405
				c-0.667,0.534-1.162,0.98-1.485,1.338c-0.324,0.356-0.523,0.758-0.599,1.204c-0.037,0.214-0.12,0.388-0.25,0.521
				c-0.129,0.134-0.296,0.201-0.5,0.201H519c-0.204,0-0.386-0.071-0.543-0.214c-0.156-0.144-0.227-0.313-0.207-0.509
				c0.035-0.731,0.207-1.393,0.514-1.98c0.306-0.588,0.666-1.084,1.083-1.485c0.417-0.4,0.949-0.859,1.598-1.378
				c0.666-0.518,1.157-0.954,1.472-1.312c0.315-0.356,0.474-0.749,0.474-1.177c0-0.68-0.301-1.235-0.903-1.673
				c-0.602-0.438-1.384-0.655-2.347-0.655c-0.76,0-1.437,0.195-2.028,0.588c-0.593,0.393-1.074,0.955-1.443,1.687
				c-0.111,0.215-0.219,0.365-0.319,0.455c-0.103,0.089-0.265,0.135-0.486,0.135h-2.25c-0.166,0-0.31-0.055-0.431-0.161
				c-0.12-0.106-0.18-0.249-0.18-0.429c0.035-0.839,0.379-1.687,1.026-2.542c0.648-0.855,1.52-1.562,2.611-2.113
				c1.093-0.555,2.259-0.83,3.5-0.83c1.185,0,2.301,0.21,3.347,0.629c1.047,0.42,1.895,1.039,2.542,1.859
				c0.648,0.82,0.974,1.784,0.974,2.891C527,166.146,526.857,166.829,526.57,167.427z M521.778,175.414
				c0.148,0.143,0.224,0.313,0.224,0.509v2.354c0,0.196-0.074,0.366-0.224,0.51c-0.148,0.143-0.325,0.214-0.527,0.214h-2.391
				c-0.203,0-0.379-0.071-0.527-0.214c-0.147-0.144-0.223-0.313-0.223-0.51v-2.354c0-0.196,0.074-0.366,0.223-0.509
				c0.149-0.144,0.324-0.214,0.527-0.214h2.391C521.452,175.2,521.629,175.271,521.778,175.414z"/>
			<path id="Rectangle-43" opacity="0.85" fill="#33198B" enable-background="new    " d="M225,155h49c1.655,0,3,1.344,3,3v49
				c0,1.656-1.345,3-3,3h-49c-1.657,0-3-1.344-3-3v-49C222,156.344,223.343,155,225,155z"/>
			<g id="Group-8_1_" transform="translate(28.000000, 57.000000)">
				<ellipse id="Oval-4_2_" fill="#FFFFFF" cx="215.007" cy="126.25" rx="2.185" ry="2.25"/>
				<ellipse id="Oval-4-Copy_2_" fill="#FFFFFF" cx="225.198" cy="126.25" rx="2.185" ry="2.25"/>
				<path id="Oval-3_2_" opacity="0.9576" fill="#FFFFFF" enable-background="new    " d="M230.294,125.5
					c0-5.799-4.563-10.5-10.191-10.5s-10.191,4.701-10.191,10.5s4.563,10.5,10.191,10.5C225.732,136,230.294,131.299,230.294,125.5z
					 M207,125.5c0-7.456,5.866-13.5,13.103-13.5c7.237,0,13.104,6.044,13.104,13.5s-5.868,13.5-13.104,13.5
					C212.867,139,207,132.956,207,125.5z"/>
				<path id="Path-2_2_" fill="#FFFFFF" d="M214.28,130.035L226.689,130c0,0-2.807,4.696-6.494,4.509
					C216.506,134.319,214.28,130.035,214.28,130.035z"/>
			</g>
		</g>
	</g>
</g>
<g id="Site_1_">
	<g id="Home-1_1_" transform="translate(-1278.000000, -360.000000)">
	</g>
</g>
<g id="Site_2_">
	<g id="Home-1_2_" transform="translate(-702.000000, -246.000000)">
		
			<g id="noun_1189255_cc" transform="translate(740.500000, 345.500000) scale(-1, -1) translate(-740.500000, -345.500000) translate(705.000000, 247.000000)" filter="url(#filter-1)">
			<path id="Shape_1_" fill="#FFFFFF" d="M-119.919,7.374c1.817-1.708,3.475-3.646,5.179-5.472
				c5.187-5.533,9.677-11.695,13.564-18.196c0.668-1.115,1.335-2.229,2.002-3.344c0.313-0.525,0.668-1.042,0.941-1.588
				c1.021-2.021,2.044-4.037,3.063-6.055c1.822-3.599,3.24-7.401,4.796-11.114c0.692-1.647,1.248-3.364,1.868-5.039
				c0.525-1.43,1.09-2.852,1.548-4.303c1.155-3.651,2.365-7.275,3.329-10.979c0.61-2.343,1.224-4.684,1.835-7.027
				c0.394-1.52,0.667-3.08,0.996-4.619c0.376-1.774,0.832-3.552,1.131-5.342c0.369-2.216,0.74-4.428,1.11-6.643
				c0.632-3.771,1.024-7.571,1.48-11.366c0.202-1.717,0.262-3.457,0.387-5.18c0.114-1.609,0.264-3.219,0.329-4.83
				c0.09-2.4,0.185-4.799,0.273-7.197c0.061-1.623-0.02-3.254-0.044-4.881c-0.024-1.633,0.007-3.277-0.109-4.904
				c-0.169-2.332-0.339-4.664-0.506-6.991c-0.142-1.953-0.478-3.9-0.729-5.841c-0.225-1.733-0.565-3.422-0.911-5.137
				c-0.349-1.709-0.69-3.395-1.148-5.08c-0.484-1.774-0.894-3.594-1.49-5.338c-1.271-3.674-2.492-7.379-4.139-10.906
				c-1.652-3.541-3.336-7.026-5.249-10.438c1.163,0.567,2.321,1.143,3.474,1.723c3.25,1.631,6.466,3.369,9.598,5.213
				c3.207,1.892,6.29,3.924,9.362,6.021c1.559,1.063,3.151,2.057,4.746,3.061c0.505,0.142,0.971,0.029,1.398-0.336
				c1.479-0.779,2.818-2.08,3.989-3.246c0.891-0.879,1.718-1.817,2.479-2.813c0.185-0.254,1.218-1.488,1.218-2.224
				c-1.406-1.905-2.836-3.293-4.486-4.498c-1.574-1.149-3.175-2.235-4.818-3.284c-3.032-1.943-6.177-3.722-9.352-5.42
				c-6.588-3.527-13.336-6.818-20.354-9.421c-0.865-0.323-1.732-0.627-2.613-0.916c-0.607-0.204-1.215-0.389-1.836-0.557
				c-1.221-0.326-2.743-0.686-3.972-0.289c-1.405,0.453-2.645,1.537-3.729,2.479c-1.195,1.032-2.351,2.184-3.355,3.397
				c-0.4,0.494-0.803,0.988-1.205,1.482c-0.559,0.674-0.983,1.422-1.278,2.233c-0.036,0.425-0.006,0.75,0.092,1.105
				c-0.441,0.572-0.793,1.195-1.039,1.877c-0.166,4.65-0.488,9.254-1.215,13.854c-0.389,2.453-0.877,4.882-1.359,7.313
				c-0.6,2.99-1.225,5.986-2.072,8.916c-0.971,3.354-2.014,6.672-3.139,9.977c-1.071,3.154-2.283,6.261-3.375,9.404
				c-0.124,0.531,0.08,0.734,0.611,0.609c0.314-0.14,0.635-0.279,0.947-0.42c0.969-0.586,1.875-1.257,2.715-2.015
				c1.086-0.951,2.102-1.965,3.05-3.043c0.954-1.094,1.942-2.268,2.442-3.651c1.12-3.107,2.256-6.207,3.325-9.33
				c1.089-3.168,2.014-6.386,2.904-9.613c0.796-2.867,1.384-5.793,1.932-8.715c0.343-1.822,0.673-3.644,0.979-5.471
				c0.58,0.85,1.172,1.692,1.746,2.551c2.086,3.129,3.836,6.424,5.535,9.776c0.762,1.504,1.511,3.058,2.155,4.611
				c0.386,0.934,0.771,1.863,1.157,2.797c0.344,0.834,0.747,1.668,1.04,2.523c0.379,1.096,0.758,2.192,1.137,3.289
				c0.316,0.909,0.691,1.821,0.945,2.754c0.324,1.168,0.638,2.336,0.961,3.504c0.267,0.979,0.604,1.965,0.808,2.959
				c0.455,2.248,0.908,4.498,1.366,6.748c0.228,1.102,0.296,2.256,0.441,3.369c0.13,1.01,0.264,2.021,0.394,3.028
				c0.147,2.037,0.296,4.074,0.446,6.111c0.112,1.508,0.137,3.002,0.159,4.518c0.032,1.89,0.157,3.806,0.09,5.695
				c-0.082,2.264-0.172,4.529-0.257,6.795c-0.134,3.56-0.451,7.111-0.712,10.663c-0.149,2.082-0.495,4.167-0.74,6.242
				c-0.171,1.428-0.338,2.846-0.575,4.262c-0.403,2.426-0.807,4.853-1.212,7.279c-0.249,1.501-0.607,2.986-0.922,4.476
				c-0.393,1.866-0.709,3.772-1.188,5.618c-0.528,2.033-1.058,4.068-1.588,6.103c-0.373,1.44-0.701,2.901-1.149,4.318
				c-0.736,2.344-1.475,4.683-2.209,7.021c-1.072,3.392-2.389,6.71-3.612,10.047c-0.519,1.409-1.16,2.78-1.737,4.166
				c-0.571,1.367-1.143,2.735-1.713,4.102c-0.604,1.205-1.213,2.405-1.817,3.607c-0.607,1.203-1.15,2.474-1.837,3.632
				c-1.68,2.821-3.311,5.674-5.104,8.424c-1.315,1.929-2.69,3.815-4.141,5.646c-1.604,1.907-3.296,3.729-4.996,5.55
				c-0.941,0.893-1.883,1.784-2.826,2.675C-125.376,8.746-121.772,9.115-119.919,7.374z"/>
		</g>
	</g>
</g>
</svg>
