<?xml version="1.0" encoding="UTF-8" standalone="no"?>
<svg width="106px" height="34px" viewBox="0 0 106 34" version="1.1" xmlns="http://www.w3.org/2000/svg" xmlns:xlink="http://www.w3.org/1999/xlink">
    <!-- Generator: Sketch 47 (45396) - http://www.bohemiancoding.com/sketch -->
    <title>Group 4</title>
    <desc>Created with Sketch.</desc>
    <defs></defs>
    <g id="Site" stroke="none" stroke-width="1" fill="none" fill-rule="evenodd">
        <g id="Home-1" transform="translate(-250.000000, -28.000000)">
            <g id="Group-4" transform="translate(250.000000, 28.000000)">
                <g id="Group-2">
                    <rect id="Rectangle-15-Copy-2" stroke="#FFFFFF" stroke-width="3.08" x="1.54" y="1.54" width="30.4063684" height="30.92" rx="9.8"></rect>
                    <path d="M17.2349017,27.4831812 C16.8867045,27.4831812 16.6069074,27.4197245 16.395502,27.2928092 C16.1840966,27.1658938 16.0162183,26.8866842 15.8918622,26.455172 L13.503594,19.9987116 C13.3792378,19.6687317 13.3916733,19.4085591 13.5409006,19.2181861 C13.690128,19.0278131 13.9388365,18.932628 14.2870336,18.932628 L15.6673798,18.932628 C16.3389029,18.932628 16.7617073,19.2372203 16.9358059,19.846414 L17.7571948,22.5715816 C17.8318085,22.8507954 17.9561627,22.9904002 18.1302613,22.9904002 C18.3043599,22.9904002 18.4287142,22.8507954 18.5033278,22.5715816 L23.2376928,7.99711931 C23.4117914,7.38792561 23.8345959,7.08333333 24.506119,7.08333333 L25.8864651,7.08333333 C26.2346622,7.08333333 26.4833708,7.17851842 26.6325981,7.36889145 C26.7818255,7.55926448 26.7942609,7.81943705 26.6699048,8.14941697 L20.3686604,26.455172 C20.2443043,26.8866842 20.076426,27.1658938 19.8650206,27.2928092 C19.6536152,27.4197245 19.3738181,27.4831812 19.025621,27.4831812 L17.2349017,27.4831812 Z" id="v-copy" fill="#FFFFFF"></path>
                    <path d="M12.6701929,9.13890478 C12.9854047,9.15008105 13.2367203,9.21650719 13.4241473,9.33818519 C13.6115743,9.45986318 13.7548559,9.71801115 13.8539964,10.1126368 L15.8995632,16.5615825 C16.0018649,16.8642942 15.982507,17.099421 15.841489,17.2669697 C15.7004709,17.4345185 15.4723595,17.5127036 15.1571478,17.5015273 L13.9075647,17.4572216 C13.2996564,17.4356673 12.9263885,17.1463587 12.78775,16.5892871 L12.0444546,13.5684541 C11.9856026,13.3132959 11.8773753,13.1829247 11.7197694,13.1773366 C11.5621636,13.1717484 11.445243,13.2941367 11.3690043,13.5445051 L10.2744145,16.5001732 C10.0978414,17.0460686 7.47096612,15.5378814 7.62040674,15.1807533 L9.80129446,9.96894261 C9.92730525,9.58229997 10.0879733,9.33492896 10.2833033,9.22682216 C10.4786334,9.11871535 10.7339005,9.07025081 11.0491122,9.08142709 L12.6701929,9.13890478 Z" id="v-copy-9" fill="#FFFFFF"></path>
                    <ellipse id="Oval-29" fill="#FFFFFF" transform="translate(8.382501, 16.534279) scale(-1, 1) translate(-8.382501, -16.534279) " cx="8.38250139" cy="16.5342791" rx="2.49498414" ry="2.54633043"></ellipse>
                </g>
                <g id="Group-3" transform="translate(39.067430, 2.833333)" fill="#FFFFFF">
                    <path d="M6.11379956,22.5958333 C5.78823602,22.5958333 5.52662638,22.5368061 5.3289628,22.41875 C5.13129922,22.3006939 4.97433344,22.0409742 4.85806074,21.6395833 L0.0792769122,7.65 C-0.0369957818,7.34305402 -0.0253686868,7.10104255 0.114158546,6.92395833 C0.253685779,6.74687411 0.486227679,6.65833333 0.811791222,6.65833333 L2.10241167,6.65833333 C2.73028422,6.65833333 3.12560545,6.94166383 3.28838722,7.50833333 L6.60214243,18.0270833 C6.67190605,18.2868069 6.788177,18.4166667 6.95095877,18.4166667 C7.11374054,18.4166667 7.23001149,18.2868069 7.29977511,18.0270833 L10.6135303,7.50833333 C10.7763121,6.94166383 11.1716333,6.65833333 11.7995059,6.65833333 L13.0901263,6.65833333 C13.4156899,6.65833333 13.6482318,6.74687411 13.787759,6.92395833 C13.9272862,7.10104255 13.9389133,7.34305402 13.8226406,7.65 L9.0438568,21.6395833 C8.9275841,22.0409742 8.77061832,22.3006939 8.57295474,22.41875 C8.37529116,22.5368061 8.11368152,22.5958333 7.78811798,22.5958333 L6.11379956,22.5958333 Z M25.3335798,10.0229167 C25.3335798,9.78680438 25.2173088,9.66875 24.9847634,9.66875 L22.3686409,9.66875 C21.205914,9.66875 20.3048141,10.0347186 19.6653143,10.7666667 C19.0258145,11.4986148 18.7060694,12.3722171 18.7060694,13.3875 L18.7060694,16.89375 C18.7060694,17.7909767 18.967679,18.5229138 19.4909061,19.0895833 C20.0141332,19.6562528 20.7408267,19.9395833 21.6710082,19.9395833 C22.2988808,19.9395833 22.8395407,19.8274317 23.2930042,19.603125 C23.7464677,19.3788183 24.1243483,19.0777797 24.4266573,18.7 C24.7289663,18.3222203 24.9556947,17.9031273 25.1068492,17.4427083 C25.2580037,16.9822894 25.3335798,16.5041691 25.3335798,16.0083333 L25.3335798,10.0229167 Z M26.3800288,22.5958333 C26.0544652,22.5958333 25.7986692,22.4895844 25.6126328,22.2770833 C25.4265965,22.0645823 25.3335798,21.8284735 25.3335798,21.56875 C25.3335798,21.4270826 25.2812579,21.3385418 25.1766124,21.303125 C25.071967,21.2677082 24.9731367,21.3090272 24.8801185,21.4270833 C24.554555,21.8756967 24.0720306,22.2416653 23.4325307,22.525 C22.7930309,22.8083348 22.0198291,22.95 21.1129021,22.95 C20.2989932,22.95 19.5548592,22.7965293 18.8804775,22.4895833 C18.2060959,22.1826374 17.6247412,21.7458362 17.1363958,21.1791667 C16.6480505,20.6124972 16.2643564,19.9336845 15.9853019,19.1427083 C15.7062475,18.3517322 15.5667223,17.4840325 15.5667223,16.5395833 L15.5667223,13.3875 C15.5667223,12.4666621 15.7295016,11.5930597 16.0550652,10.7666667 C16.3806287,9.94027365 16.839899,9.22604468 17.4328897,8.62395833 C18.0258805,8.02187199 18.7293197,7.54375177 19.5432286,7.18958333 C20.3571374,6.8354149 21.2524237,6.65833333 22.2291144,6.65833333 L27.4264778,6.65833333 C27.7520413,6.65833333 28.0078374,6.75277683 28.1938737,6.94166667 C28.3799101,7.1305565 28.4729268,7.39027612 28.4729268,7.72083333 L28.4729268,21.5333333 C28.4729268,21.8638905 28.3799101,22.1236102 28.1938737,22.3125 C28.0078374,22.5013898 27.7520413,22.5958333 27.4264778,22.5958333 L26.3800288,22.5958333 Z M32.9377759,22.5958333 C32.6122124,22.5958333 32.3564163,22.5013898 32.17038,22.3125 C31.9843437,22.1236102 31.8913269,21.8638905 31.8913269,21.5333333 L31.8913269,7.72083333 C31.8913269,7.39027612 31.9843437,7.1305565 32.17038,6.94166667 C32.3564163,6.75277683 32.6122124,6.65833333 32.9377759,6.65833333 L33.984225,6.65833333 C34.3097885,6.65833333 34.5655846,6.75277683 34.7516209,6.94166667 C34.9376572,7.1305565 35.030674,7.39027612 35.030674,7.72083333 L35.030674,21.5333333 C35.030674,21.8638905 34.9376572,22.1236102 34.7516209,22.3125 C34.5655846,22.5013898 34.3097885,22.5958333 33.984225,22.5958333 L32.9377759,22.5958333 Z M48.2159315,12.6791667 C48.2159315,11.78194 47.9252542,11.0559056 47.3438907,10.5010417 C46.7625272,9.94617778 46.0649015,9.66875 45.2509927,9.66875 L41.9372375,9.66875 C41.7046921,9.66875 41.5884211,9.78680438 41.5884211,10.0229167 L41.5884211,19.23125 C41.5884211,19.4673623 41.7046921,19.5854167 41.9372375,19.5854167 L45.2509927,19.5854167 C46.1346651,19.5854167 46.8497315,19.3079889 47.3962132,18.753125 C47.9426948,18.1982611 48.2159315,17.4722267 48.2159315,16.575 L48.2159315,12.6791667 Z M39.4955231,30.7416667 C39.1699596,30.7416667 38.9141635,30.6472232 38.7281272,30.4583333 C38.5420908,30.2694435 38.4490741,30.0097239 38.4490741,29.6791667 L38.4490741,7.72083333 C38.4490741,7.39027612 38.5420908,7.1305565 38.7281272,6.94166667 C38.9141635,6.75277683 39.1699596,6.65833333 39.4955231,6.65833333 L45.2509927,6.65833333 C46.1579197,6.65833333 46.989257,6.81180402 47.7450295,7.11875 C48.500802,7.42569598 49.1461058,7.84478901 49.6809602,8.37604167 C50.2158146,8.90729432 50.6285764,9.54478795 50.9192582,10.2885417 C51.2099399,11.0322954 51.3552786,11.8291624 51.3552786,12.6791667 L51.3552786,16.575 C51.3552786,17.4250043 51.2041264,18.2218713 50.9018173,18.965625 C50.5995083,19.7093787 50.1867465,20.3468723 49.6635193,20.878125 C49.1402922,21.4093777 48.5124291,21.8284707 47.7799111,22.1354167 C47.0473932,22.4423626 46.2509371,22.5958333 45.3905192,22.5958333 L41.9372375,22.5958333 C41.7046921,22.5958333 41.5884211,22.7138877 41.5884211,22.95 L41.5884211,29.6791667 C41.5884211,30.0097239 41.4954044,30.2694435 41.3093681,30.4583333 C41.1233317,30.6472232 40.8675357,30.7416667 40.5419721,30.7416667 L39.4955231,30.7416667 Z M65.412577,19.125 C65.6218679,19.3375011 65.7206982,19.5736098 65.7090709,19.8333333 C65.6974436,20.0930569 65.5986133,20.340971 65.412577,20.5770833 C64.9474862,21.1673641 64.2614876,21.7104142 63.3545606,22.20625 C62.4476336,22.7020858 61.3663138,22.95 60.1105687,22.95 C59.133878,22.95 58.2560324,22.7906266 57.4770053,22.471875 C56.6979783,22.1531234 56.0294203,21.7104195 55.4713114,21.14375 C54.9132024,20.5770805 54.4829999,19.915976 54.1806909,19.1604167 C53.8783819,18.4048573 53.7272297,17.6020876 53.7272297,16.7520833 L53.7272297,12.5729167 C53.7272297,11.7229124 53.8609413,10.9142399 54.1283685,10.146875 C54.3957957,9.37951005 54.7911169,8.71250283 55.314344,8.14583333 C55.8375711,7.57916383 56.4770614,7.13055721 57.2328339,6.8 C57.9886064,6.46944279 58.854825,6.30416667 59.8315156,6.30416667 C60.8082062,6.30416667 61.6802384,6.46944279 62.4476381,6.8 C63.2150379,7.13055721 63.8719688,7.57916383 64.4184504,8.14583333 C64.9649321,8.71250283 65.3835075,9.37951005 65.6741893,10.146875 C65.964871,10.9142399 66.1102097,11.7229124 66.1102097,12.5729167 L66.1102097,14.6979167 C66.1102097,15.0284739 66.0171929,15.2881935 65.8311566,15.4770833 C65.6451203,15.6659732 65.3893242,15.7604167 65.0637607,15.7604167 L57.2153931,15.7604167 C56.9828477,15.7604167 56.8665767,15.878471 56.8665767,16.1145833 L56.8665767,16.7520833 C56.8665767,17.64931 57.1281864,18.404858 57.6514135,19.01875 C58.1746406,19.632642 58.9943508,19.9395833 60.1105687,19.9395833 C60.9942411,19.9395833 61.6802397,19.7802099 62.1685851,19.4614583 C62.6569304,19.1427067 63.0289974,18.8416681 63.2847973,18.5583333 C63.5405973,18.2986098 63.7963934,18.1746527 64.0521933,18.1864583 C64.3079932,18.1982639 64.5405351,18.3104156 64.749826,18.5229167 L65.412577,19.125 Z M62.9708626,12.5729167 C62.9708626,11.67569 62.7266936,10.9083365 62.2383483,10.2708333 C61.750003,9.63333015 60.9477335,9.31458333 59.8315156,9.31458333 C58.7385523,9.31458333 57.971164,9.63333015 57.5293278,10.2708333 C57.0874915,10.9083365 56.8665767,11.67569 56.8665767,12.5729167 L56.8665767,12.75 C56.8665767,12.9861123 56.9828477,13.1041667 57.2153931,13.1041667 L62.6220463,13.1041667 C62.8545917,13.1041667 62.9708626,12.9861123 62.9708626,12.75 L62.9708626,12.5729167 Z" id="vaipe"></path>
                    <ellipse id="Oval-29-Copy-2" transform="translate(33.475623, 2.542662) scale(-1, 1) translate(-33.475623, -2.542662) " cx="33.4756228" cy="2.54266222" rx="2.44171437" ry="2.48531627"></ellipse>
                </g>
            </g>
        </g>
    </g>
</svg>