<?xml version="1.0" encoding="UTF-8" standalone="no"?>
<svg width="78px" height="204px" viewBox="0 0 78 204" version="1.1" xmlns="http://www.w3.org/2000/svg" xmlns:xlink="http://www.w3.org/1999/xlink">
    <!-- Generator: Sketch 47 (45396) - http://www.bohemiancoding.com/sketch -->
    <title>noun_1189255_cc</title>
    <desc>Created with Sketch.</desc>
    <defs>
        <filter x="-9.9%" y="-2.5%" width="119.7%" height="107.1%" filterUnits="objectBoundingBox" id="filter-1">
            <feOffset dx="0" dy="2" in="SourceAlpha" result="shadowOffsetOuter1"></feOffset>
            <feGaussianBlur stdDeviation="2" in="shadowOffsetOuter1" result="shadowBlurOuter1"></feGaussianBlur>
            <feColorMatrix values="0 0 0 0 0   0 0 0 0 0   0 0 0 0 0  0 0 0 0.150050951 0" type="matrix" in="shadowBlurOuter1" result="shadowMatrixOuter1"></feColorMatrix>
            <feMerge>
                <feMergeNode in="shadowMatrixOuter1"></feMergeNode>
                <feMergeNode in="SourceGraphic"></feMergeNode>
            </feMerge>
        </filter>
    </defs>
    <g id="Site" stroke="none" stroke-width="1" fill="none" fill-rule="evenodd">
        <g id="Home-1" transform="translate(-702.000000, -246.000000)" fill-rule="nonzero" fill="#FFFFFF">
            <g id="noun_1189255_cc" filter="url(#filter-1)" transform="translate(740.500000, 345.500000) scale(-1, -1) translate(-740.500000, -345.500000) translate(705.000000, 247.000000)">
                <path d="M4.58093118,194.971954 C6.39852678,193.26381 8.05422397,191.324591 9.75987494,189.500609 C14.9460409,183.967445 19.4352613,177.80558 23.3244344,171.304006 C23.9921902,170.189151 24.6593441,169.075495 25.326197,167.96034 C25.6376559,167.435172 25.9936518,166.918708 26.2674949,166.372533 C27.2885382,164.352889 28.3116881,162.335346 29.3300231,160.317802 C31.1527344,156.719955 32.569797,152.917142 34.1258875,149.203758 C34.8180183,147.556533 35.3735285,145.839385 35.9934369,144.164551 C36.5185535,142.734295 37.0836933,141.313942 37.5420043,139.861479 C38.6972608,136.210214 39.907286,132.586258 40.8711533,128.882777 C41.4811312,126.53993 42.0938174,124.198884 42.7065036,121.856036 C43.0998144,120.336652 43.3736575,118.775554 43.7022691,117.236363 C44.0784271,115.462197 44.5340298,113.685631 44.8328497,111.89526 C45.2014846,109.679053 45.5725268,107.466747 45.9432682,105.252041 C46.5758155,101.481639 46.9688255,97.6812266 47.424729,93.8850159 C47.6266506,92.1690687 47.6859331,90.4285136 47.8105167,88.7053641 C47.9251696,87.0950505 48.0744291,85.4859373 48.1391283,83.8747235 C48.2291053,81.4748581 48.3235962,79.0761932 48.4129714,76.6778283 C48.4728557,75.0552108 48.3934111,73.4238905 48.3684343,71.7973718 C48.3437583,70.1648512 48.3759574,68.5200266 48.259198,66.8923075 C48.0897764,64.5605639 47.9203548,62.2291203 47.7536416,59.9000776 C47.6113034,57.9473548 47.2751686,56.000634 47.023895,54.0611154 C46.7997048,52.3268623 46.4587552,50.6397243 46.1126898,48.923777 C45.764217,47.2153322 45.4229664,45.5293945 44.9649564,43.8446572 C44.4795621,42.0680906 44.070904,40.2504109 43.473565,38.5062547 C42.2036555,34.8324831 40.9812924,31.1269013 39.3355258,27.6007768 C37.682236,24.0587471 35.9988536,20.5728354 34.0867671,17.1622477 C35.2495468,17.7297287 36.4075117,18.3056124 37.5600599,18.8853973 C40.8097643,20.5167175 44.0263669,22.2536715 47.1584091,24.0971594 C50.365382,25.9880624 53.4477714,28.0215109 56.5205311,30.1182796 C58.07933,31.1809185 59.6727354,32.1742353 61.2661408,33.1771552 C61.7716972,33.3176 62.2372304,33.2071647 62.6654487,32.8419483 C64.1442011,32.0622996 65.4839256,30.7610846 66.6542284,29.5955129 C67.5455725,28.7165326 68.3722174,27.7778332 69.1341631,26.7812154 C69.3183301,26.5279346 70.3517114,25.293641 70.3517114,24.5590067 C68.9451813,22.653399 67.5157808,21.2654563 65.8651993,20.0599719 C64.2913541,18.9103052 62.6901246,17.8251591 61.0470664,16.7763247 C58.0143299,14.8320046 54.8696487,13.0542376 51.6951759,11.3556959 C45.1066927,7.8286711 38.3593205,4.53752149 31.342619,1.93509153 C30.4762518,1.61098817 29.6098847,1.3081916 28.7281702,1.01889934 C28.1205998,0.815434456 27.5133303,0.631475788 26.8931209,0.464022385 C25.6728643,0.137518257 24.1492738,-0.22259659 22.9217949,0.174730124 C21.5149639,0.626674257 20.2775544,1.71182033 19.1918119,2.65262037 C17.9965321,3.68554979 16.8412756,4.83521643 15.8355794,6.05180442 C15.4347455,6.54486167 15.0339115,7.0388192 14.6303691,7.53427721 C14.0724515,8.20709178 13.6469416,8.95433009 13.35083,9.76758945 C13.3156216,10.1910245 13.3454133,10.5175286 13.4429135,10.8737422 C13.0020562,11.4460247 12.6508751,12.0693235 12.4047173,12.7508409 C12.2377031,17.4002236 11.9166146,22.0036918 11.1895764,26.6035587 C10.8013813,29.0568411 10.3129777,31.4840152 9.8299908,33.9171912 C9.22994351,36.9067446 8.60491933,39.9026 7.7584133,42.8324344 C6.78732372,46.1857038 5.74401181,49.5041621 4.61854698,52.8091161 C3.54785077,55.9637222 2.3354182,59.0688125 1.24486084,62.2135154 C1.1202773,62.7437845 1.32460634,62.9472494 1.8548387,62.8218094 C2.17111238,62.6840654 2.48979346,62.5436206 2.80335879,62.4031758 C3.77204095,61.8158885 4.67813042,61.1457748 5.51741421,60.3883333 C6.60285583,59.4385304 7.61878343,58.424507 8.56760445,57.3453628 C9.52124029,56.2527144 10.5097836,55.0784399 11.0102242,53.6940984 C12.1308742,50.5866073 13.2659687,47.4866187 14.3366649,44.3629225 C15.4248149,41.1957124 16.348659,37.9792866 17.2400031,34.7499568 C18.0362544,31.8834426 18.6242646,28.9572094 19.1719507,26.0357777 C19.5132013,24.2132964 19.8442203,22.3920156 20.1505634,20.5644328 C20.7307496,21.414904 21.3229728,22.2578728 21.8962376,23.1155463 C23.9828615,26.2440441 25.7330495,29.5390949 27.4311774,32.8923643 C28.1928221,34.3958438 28.9424299,35.9491392 29.5873152,37.5033349 C29.9731029,38.4369326 30.3591915,39.3678295 30.7452801,40.3002268 C31.088938,41.1356933 31.4921795,41.9690591 31.7858836,42.8243318 C32.1644491,43.919381 32.5430145,45.0180314 32.921279,46.1130807 C33.2375527,47.0244713 33.6137107,47.9355619 33.8676926,48.8667588 C34.1911886,50.0350314 34.5047539,51.203304 34.8285507,52.3715766 C35.0948706,53.351089 35.4310054,54.3354029 35.6353345,55.3299201 C36.091238,57.5782371 36.5444332,59.8277545 37.0021423,62.0787724 C37.2290408,63.1798235 37.2985548,64.3345918 37.4429995,65.448247 C37.5726988,66.4574688 37.706912,67.4681912 37.8366113,68.477413 C37.9834633,70.5147628 38.1330238,72.550612 38.2822833,74.5879618 C38.3942279,76.0962428 38.4192048,77.5898191 38.4414734,79.1047022 C38.4736725,80.9953052 38.598256,82.9099158 38.5311494,84.8005187 C38.4492975,87.0638406 38.3593205,89.3307635 38.2744592,91.5952857 C38.1399451,95.1547209 37.8236714,98.707854 37.5624673,102.259787 C37.4129068,104.341851 37.0671424,106.427516 36.8227901,108.502078 C36.6512621,109.929633 36.4842479,111.347585 36.2480207,112.764337 C35.8444783,115.19001 35.440936,117.615984 35.0355881,120.043158 C34.786421,121.544237 34.4277167,123.02881 34.1138505,124.518786 C33.7205396,126.384781 33.4045669,128.291589 32.9263948,130.136577 C32.3958615,132.170026 31.8680366,134.205275 31.3381051,136.238723 C30.9643545,137.680083 30.6357428,139.141249 30.1876634,140.558001 C29.4506946,142.900848 28.7140267,145.239794 27.9791644,147.57964 C26.9060607,150.971622 25.5910123,154.29008 24.3662417,157.627144 C23.8483473,159.036094 23.2061704,160.406931 22.6283916,161.792473 C22.0560296,163.159409 21.485774,164.527245 20.9155184,165.894181 C20.3103554,167.098765 19.7030859,168.299148 19.0979228,169.501031 C18.4903524,170.704115 17.947782,171.97532 17.260767,173.13339 C15.5821994,175.953989 13.9514791,178.806999 12.1588604,181.557076 C10.8417054,183.485191 9.46737446,185.372193 8.0181128,187.203077 C6.41447588,189.109885 4.72146382,190.932666 3.0209286,192.752747 C2.07993167,193.645531 1.13863381,194.536515 0.194928548,195.4281 C-0.87576767,196.344292 2.72842811,196.71371 4.58093118,194.971954 Z" id="Shape"></path>
            </g>
        </g>
    </g>
</svg>