<?xml version="1.0" encoding="UTF-8" standalone="no"?>
<svg width="69px" height="87px" viewBox="0 0 69 87" version="1.1" xmlns="http://www.w3.org/2000/svg" xmlns:xlink="http://www.w3.org/1999/xlink">
    <!-- Generator: Sketch 47 (45396) - http://www.bohemiancoding.com/sketch -->
    <title>noun_1189243_cc copy</title>
    <desc>Created with Sketch.</desc>
    <defs>
        <filter x="-7.4%" y="-5.3%" width="114.7%" height="114.9%" filterUnits="objectBoundingBox" id="filter-1">
            <feOffset dx="0" dy="2" in="SourceAlpha" result="shadowOffsetOuter1"></feOffset>
            <feGaussianBlur stdDeviation="2" in="shadowOffsetOuter1" result="shadowBlurOuter1"></feGaussianBlur>
            <feColorMatrix values="0 0 0 0 0   0 0 0 0 0   0 0 0 0 0  0 0 0 0.131368886 0" type="matrix" in="shadowBlurOuter1" result="shadowMatrixOuter1"></feColorMatrix>
            <feMerge>
                <feMergeNode in="shadowMatrixOuter1"></feMergeNode>
                <feMergeNode in="SourceGraphic"></feMergeNode>
            </feMerge>
        </filter>
    </defs>
    <g id="Site" stroke="none" stroke-width="1" fill="none" fill-rule="evenodd">
        <g id="Home-1" transform="translate(-1278.000000, -360.000000)" fill-rule="nonzero" fill="#FFFFFF">
            <g id="noun_1189243_cc-copy" filter="url(#filter-1)" transform="translate(1308.500000, 398.000000) scale(-1, -1) translate(-1308.500000, -398.000000) translate(1261.000000, 351.000000)">
                <path d="M23.6305879,57.6370572 C23.7407501,59.4264167 23.8314847,61.2314095 24.1220306,63.0027474 C24.3530998,64.4118056 24.5706023,65.8266178 24.903151,67.2174372 C25.0863566,67.9836852 25.2678257,68.7498246 25.4511399,69.5155298 C25.6988149,70.5503663 26.0147578,71.5716323 26.3063891,72.5948524 C26.753984,74.1696885 27.4092047,75.6493137 28.1405079,77.1104828 C29.0630482,78.9539075 30.3861882,80.5488281 31.7670683,82.0646052 C33.1732369,83.6087176 34.7148561,85.035689 36.4554184,86.1978716 C37.2619357,86.7367856 38.1209836,87.190368 39.0015212,87.5950963 C39.4872116,87.8179792 39.9912442,87.98278 40.5012463,88.1432383 C40.9488411,88.2832865 41.4402838,88.3198727 41.9033991,88.3778461 C42.2106593,88.3441911 42.4436821,88.1919837 42.6035529,87.9213325 C42.9858102,87.3985946 43.0891348,86.6313695 43.0891348,86.006581 C43.0891348,85.187245 42.8960525,83.8168357 41.9033991,83.6340131 C41.5484924,83.5690916 41.1955393,83.4935307 40.8463849,83.4017937 C39.7103578,82.980455 38.6552973,82.3093095 37.6694815,81.6182967 C36.5978152,80.8682248 35.6177517,79.9868984 34.6953199,79.0598664 C32.9878605,77.2607361 31.4013082,75.2601101 30.2389073,73.0649365 C29.6343721,71.7915839 29.1389136,70.4591722 28.7810765,69.0960367 C28.6416101,68.5648308 28.5011669,68.033842 28.3627858,67.502636 C28.0429357,66.0219252 27.7445753,64.54382 27.4715033,63.0547498 C27.2344647,61.75849 27.1048749,60.4431229 26.9722462,59.1327498 C26.904955,57.8475637 26.8386406,56.5658515 26.8308262,55.2783855 C26.8259421,54.5843329 26.7977233,53.8855034 26.8288726,53.1914508 C26.8581768,52.5321388 26.8883493,51.8728267 26.917545,51.2138404 C26.9760449,50.6949023 27.0345448,50.1759641 27.0940215,49.6575688 C27.1593591,49.0859769 27.2714749,48.527087 27.3778383,47.9617918 C27.4792092,47.4170153 27.5670134,46.867462 27.7035494,46.3299593 C27.8098043,45.9086206 27.9160592,45.4872819 28.023291,45.0654004 C28.2261413,44.4245443 28.4289917,43.7836883 28.6317335,43.1423979 C28.8092954,42.582531 29.0374342,42.0397086 29.2470136,41.4914581 C29.6712737,40.3877917 30.1588091,39.3211458 30.6502518,38.2472261 C31.6751399,36.328132 32.8852957,34.5489775 34.3118687,32.8981462 C34.7946287,32.3382793 35.3124452,31.8066391 35.8281995,31.2755417 C36.3694593,30.7804877 36.908657,30.2849995 37.4508937,29.789077 C37.9949754,29.2906575 38.6219773,28.8604165 39.2012241,28.4015145 C39.7638652,27.9543375 40.3928206,27.573819 40.9837891,27.162794 C41.5806185,26.7481863 42.2426769,26.4074024 42.8667483,26.0341577 C43.1066088,25.8908527 43.3699126,25.7771857 43.6195412,25.6508166 C44.0798346,25.4177287 44.5400194,25.184098 44.999336,24.9504672 C45.6351291,24.6275965 46.3001179,24.3608536 46.9515399,24.0716379 C48.1821002,23.5268614 49.4488024,23.0454865 50.7282031,22.6265362 C51.1738443,22.4811684 51.6193771,22.3358006 52.0651268,22.1899985 C53.5102592,21.78755 54.9505075,21.3969351 56.4073615,21.0413864 C57.3893786,20.8024361 58.3819235,20.5981177 59.3746854,20.3995533 C59.3415825,20.4443904 59.3093479,20.4887933 59.276245,20.5336304 C58.3450219,21.808503 57.4635074,23.1120365 56.5966451,24.4328319 C55.756048,25.7140011 54.9652681,27.050864 54.2592534,28.4105254 C53.814589,29.2693789 53.3503884,30.123347 52.9623787,31.0084731 C52.5683997,31.9092325 52.2408437,32.8222597 51.925769,33.7527657 C51.650852,34.5701476 51.6127565,35.5440794 51.925769,36.3589643 C52.0272484,36.6798809 52.2066554,36.9432583 52.4678971,37.1505078 C52.8433168,37.3739335 53.2558551,37.2046815 53.4673882,36.8374079 C53.8176279,36.2272756 54.1920708,35.6313653 54.5323254,35.0173246 C54.8464232,34.4530065 55.1584589,33.8878199 55.4889455,33.3322955 C56.1861689,32.1579537 56.9184489,31.0040219 57.7151981,29.8925389 C58.531375,28.7547833 59.3894461,27.6539396 60.261301,26.5596098 C61.0695549,25.5451834 61.9628995,24.5951357 62.8356227,23.6358601 C63.2208105,23.2344973 63.6050214,22.8321573 64.0116989,22.4546787 C64.6834168,21.8308673 65.354375,21.2179123 66.0477997,20.6195049 C66.9498271,19.8420748 67.8965706,19.0579136 68.9165746,18.4106523 C69.2227495,18.3258634 69.5259939,18.2336922 69.8264165,18.1321844 C70.2564288,17.9877937 70.6924106,17.8697841 71.0248507,17.5488675 C71.2150025,17.3513888 71.4061312,17.1538014 71.5972598,16.9557798 C71.9911303,16.327083 72.2408674,15.6429097 72.346037,14.9055399 C72.4162586,14.4656366 72.4514237,14.0251906 72.4514237,13.5852874 C72.4514237,13.1448413 72.4163671,12.7049381 72.346037,12.2650349 C72.2466197,11.8826708 72.1481792,11.4998725 72.0496302,11.1175085 C71.8594784,10.5117187 71.5172702,10.0123222 71.0248507,9.62073014 C70.6153513,9.43888466 70.2359159,9.32424058 69.8019963,9.29449392 C69.6478778,9.28374604 69.4948446,9.28808861 69.3407261,9.29004277 C68.9585774,9.29536243 68.584026,9.33781114 68.2046991,9.37635153 C67.483164,9.44952398 66.7624972,9.57925852 66.0477997,9.69292551 C65.187558,9.82895679 64.3315491,9.99234632 63.4772767,10.1645296 C62.6112826,9.94794345 61.7453971,9.72853466 60.8813566,9.50315482 C58.1277365,8.78478374 55.4275151,7.87718479 52.6864849,7.10909118 C50.8921982,6.60676339 49.0959578,6.11561774 47.2861507,5.66550946 C46.4768115,5.46455663 45.6567274,5.30409834 44.8405505,5.1383204 C44.4203062,5.05342299 43.9931158,4.99056416 43.5660339,4.9608175 C42.9965551,4.92184285 42.4427053,4.9461613 41.8751802,5.00370046 C41.5007373,5.04462927 41.2159437,5.23103446 41.0219932,5.56020192 C40.5568158,6.19660683 40.4310247,7.13058695 40.4310247,7.89042966 C40.4261406,8.4757007 40.5188288,9.04436138 40.7098489,9.59543462 C40.9205137,10.1470507 41.234503,10.6942156 41.8751802,10.7781359 C42.7361817,10.8898488 43.5787324,11.095687 44.4348498,11.2468087 C45.128166,11.3687266 45.8234359,11.4814166 46.5187057,11.6023574 C48.0164771,11.8637806 49.5084962,12.1592931 51.0033372,12.4406922 C51.625455,12.5582675 52.2485496,12.6737801 52.8706674,12.7909212 C52.0798875,13.0435507 51.2899759,13.2961802 50.5118945,13.5868073 C49.8332304,13.8399796 49.1389374,14.067205 48.4757937,14.3613062 C47.7083486,14.7017644 46.9380817,15.0391827 46.1705281,15.3815951 C45.4245728,15.7142366 44.70879,16.1390493 43.9833477,16.514031 C42.6669369,17.1963587 41.4324694,18.0229686 40.2252439,18.8759596 C39.0005444,19.7406756 37.8752623,20.7302407 36.7664773,21.7382618 C35.5046592,22.8868738 34.3403047,24.1533869 33.2267442,25.4453041 C32.3569515,26.453868 31.5173312,27.4770881 30.755747,28.5709837 C30.182361,29.3966164 29.6694286,30.2627438 29.1818931,31.1411389 C28.6963113,32.0219224 28.2223426,32.9251788 27.8245649,33.8498223 C27.4910395,34.628121 27.1555604,35.4080481 26.8211666,36.1868896 C26.5042469,36.9232824 26.271224,37.705598 25.9991289,38.4586011 C25.7475467,39.1526538 25.5642325,39.8720019 25.3545445,40.5781052 C25.0697509,41.541832 24.8455193,42.5206492 24.6164037,43.4980551 C24.2965535,44.8602135 24.0244584,46.2447362 23.8851005,47.6376183 C23.7767835,48.6954705 23.6257039,49.7688474 23.592601,50.832562 C23.5652504,51.682079 23.536923,52.5311617 23.5096809,53.38133 C23.4833071,54.1762391 23.5349693,54.9796161 23.5486446,55.7739823 C23.5593895,56.3983366 23.592601,57.0143314 23.6305879,57.6370572 Z" id="Shape" transform="translate(47.976858, 46.659836) rotate(-46.000000) translate(-47.976858, -46.659836) "></path>
            </g>
        </g>
    </g>
</svg>