<?xml version="1.0" encoding="UTF-8" standalone="no"?>
<svg width="19px" height="18px" viewBox="0 0 19 18" version="1.1" xmlns="http://www.w3.org/2000/svg" xmlns:xlink="http://www.w3.org/1999/xlink">
    <!-- Generator: Sketch 47 (45396) - http://www.bohemiancoding.com/sketch -->
    <title>Group 8</title>
    <desc>Created with Sketch.</desc>
    <defs></defs>
    <g id="Site" stroke="none" stroke-width="1" fill="none" fill-rule="evenodd">
        <g id="Home-1" transform="translate(-1068.000000, -35.000000)" fill="#FFFFFF">
            <g id="botao_cadastre-se" transform="translate(1059.000000, 26.000000)">
                <g id="Group-8" transform="translate(9.705882, 9.000000)">
                    <ellipse id="Oval-4" cx="5.33823529" cy="9.5" rx="1.45588235" ry="1.5"></ellipse>
                    <ellipse id="Oval-4-Copy" cx="12.1323529" cy="9.5" rx="1.45588235" ry="1.5"></ellipse>
                    <path d="M15.5294118,9 C15.5294118,5.13400675 12.4875817,2 8.73529412,2 C4.98300655,2 1.94117647,5.13400675 1.94117647,9 C1.94117647,12.8659932 4.98300655,16 8.73529412,16 C12.4875817,16 15.5294118,12.8659932 15.5294118,9 Z M0,9 C0,4.02943725 3.91092439,0 8.73529412,0 C13.5596638,0 17.4705882,4.02943725 17.4705882,9 C17.4705882,13.9705627 13.5596638,18 8.73529412,18 C3.91092439,18 0,13.9705627 0,9 Z" id="Oval-3" fill-rule="nonzero"></path>
                    <path d="M4.85294118,12.0231934 L13.1256893,12 C13.1256893,12 11.25489,15.1315918 8.79619284,15.0056152 C6.33749569,14.8796387 4.85294118,12.0231934 4.85294118,12.0231934 Z" id="Path-2"></path>
                </g>
            </g>
        </g>
    </g>
</svg>